<svg width="128" height="64" viewBox="0 0 128 64" fill="none" xmlns="http://www.w3.org/2000/svg">
<path d="M128 16.0282C128.001 15.8854 127.972 15.7439 127.917 15.6119C127.861 15.4799 127.78 15.36 127.678 15.259C127.576 15.158 127.454 15.0779 127.32 15.0233C127.186 14.9687 127.043 14.9407 126.898 14.9408H110.498C110.247 14.94 110.004 15.0239 109.808 15.1786C109.613 15.3333 109.476 15.5495 109.423 15.7911L107.662 23.6008L101.764 0.819984C101.705 0.592739 101.574 0.39027 101.389 0.242865C101.204 0.0954598 100.976 0.0110489 100.739 0.00226833C100.725 0.000459737 100.711 -0.000271207 100.697 8.94189e-05C100.467 0.000288291 100.242 0.0714493 100.055 0.203624C99.8676 0.335799 99.7268 0.522388 99.6522 0.737341L93.5845 18.3356L92.6302 15.665C92.5544 15.4531 92.4139 15.2696 92.2279 15.1399C92.042 15.0101 91.8198 14.9406 91.592 14.9408H78.9321C78.6398 14.9408 78.3595 15.0554 78.1528 15.2593C77.9462 15.4632 77.8301 15.7398 77.8301 16.0282C77.8301 16.3166 77.9462 16.5932 78.1528 16.7971C78.3595 17.001 78.6398 17.1156 78.9321 17.1156H90.8118L92.3546 21.4347L92.564 22.0197C92.6394 22.232 92.7798 22.4159 92.9658 22.5461C93.1518 22.6762 93.3741 22.7461 93.6021 22.7461H93.6087C93.838 22.7449 94.0611 22.6732 94.2472 22.5411C94.4332 22.409 94.5729 22.2229 94.6468 22.0088L100.545 4.89988L106.67 28.5527C106.731 28.7864 106.868 28.9935 107.061 29.1416C107.255 29.2896 107.492 29.3701 107.737 29.3705H107.754C108.002 29.3665 108.241 29.2802 108.433 29.1255C108.625 28.9708 108.759 28.7567 108.812 28.5179L111.382 17.1156H126.898C127.043 17.1157 127.186 17.0877 127.32 17.0331C127.454 16.9785 127.576 16.8984 127.678 16.7974C127.78 16.6964 127.861 16.5765 127.917 16.4445C127.972 16.3125 128.001 16.171 128 16.0282Z" fill="#CC3333"/>
<path d="M23.8078 21.7889C22.8061 23.0014 21.5404 23.9756 20.1046 24.639C18.6621 25.2619 17.108 25.5944 15.5336 25.617C13.9591 25.6396 12.3959 25.3518 10.9357 24.7705C9.62235 24.2371 8.42912 23.4523 7.42484 22.4613C6.42056 21.4704 5.62512 20.2931 5.08445 18.9972C3.9393 16.2337 3.9393 13.1372 5.08445 10.3737C5.62512 9.07784 6.42056 7.90046 7.42484 6.90955C8.42912 5.91863 9.62235 5.13381 10.9357 4.60035C12.3289 4.02727 13.8255 3.73891 15.3349 3.75269C16.8777 3.72158 18.4089 4.0207 19.8232 4.62949C21.1403 5.23146 22.3158 6.09766 23.2746 7.17286L20.4602 9.86214C19.8495 9.15848 19.111 8.57356 18.2827 8.13748C17.3783 7.6896 16.376 7.46871 15.3645 7.4944C14.4117 7.48805 13.4665 7.6617 12.5799 8.00595C11.7332 8.33239 10.9623 8.82454 10.3134 9.45278C9.65603 10.0994 9.13715 10.8698 8.78769 11.7183C8.03738 13.6271 8.03738 15.7438 8.78769 17.6526C9.13686 18.5012 9.65578 19.2716 10.3134 19.9179C10.962 20.5465 11.733 21.0388 12.5799 21.3649C13.4665 21.7094 14.4117 21.883 15.3645 21.8765C16.4599 21.8973 17.5436 21.6513 18.5197 21.1604C19.4685 20.6578 20.3008 19.9659 20.9638 19.1287L23.8078 21.7889Z" fill="#007FDD"/>
<path d="M33.1987 4.22021H37.7608L45.7301 25.1505H41.316L39.568 20.1517H31.3916L29.6435 25.1505H25.2295L33.1987 4.22021ZM38.2645 16.527L36.3684 11.2945L35.5981 8.75112H35.3614L34.5912 11.2945L32.6951 16.527H38.2645Z" fill="#007FDD"/>
<path d="M48.2188 4.22021H52.2181V21.4087H61.1947V25.1505H48.2188V4.22021Z" fill="#007FDD"/>
<path d="M64.0391 4.22021H68.0385V21.4087H77.015V25.1505H64.0391V4.22021Z" fill="#007FDD"/>
<path d="M22.2983 42.5876C22.3165 44.0438 22.0603 45.4905 21.543 46.8544C21.0673 48.0981 20.3242 49.2254 19.3647 50.1587C18.3807 51.0964 17.2108 51.8232 15.9284 52.2933C14.4769 52.8183 12.94 53.0759 11.3942 53.0533H4.22656V49.3098H11.2167C12.2644 49.3288 13.3073 49.1659 14.2978 48.8286C15.1312 48.5421 15.8904 48.0779 16.5212 47.4688C17.1219 46.8705 17.5776 46.1458 17.8542 45.3491C18.4444 43.5533 18.4444 41.6195 17.8542 39.8238C17.5775 39.0278 17.1218 38.3039 16.5212 37.7064C15.8904 37.0974 15.1312 36.6332 14.2978 36.3467C13.3078 36.0074 12.2646 35.8436 11.2167 35.8631H4.22656V32.122H11.3942C12.94 32.0994 14.4769 32.357 15.9284 32.882C17.214 33.3527 18.3848 34.085 19.3647 35.0314C20.3218 35.9714 21.0644 37.1022 21.543 38.3481C22.0586 39.7029 22.3147 41.1405 22.2983 42.5876Z" fill="#007FDD"/>
<path d="M45.8047 38.3039C45.2701 37.0037 44.479 35.8213 43.4774 34.8253C42.4757 33.8294 41.2835 33.0397 39.97 32.5022C37.1479 31.3736 33.9913 31.3736 31.1692 32.5022C29.8556 33.0409 28.663 33.831 27.6604 34.8268C26.6634 35.8256 25.8733 37.0066 25.3346 38.3039C24.2075 41.0508 24.2075 44.1225 25.3346 46.8694C25.8727 48.1677 26.6628 49.3497 27.6604 50.3489C28.6631 51.3447 29.8556 52.1348 31.1693 52.6735C33.9914 53.8021 37.1479 53.8021 39.97 52.6735C41.284 52.136 42.4764 51.3461 43.4781 50.3496C44.4798 49.3532 45.2707 48.1702 45.8047 46.8694C46.9318 44.1225 46.9318 41.0508 45.8047 38.3039ZM42.1008 45.5245C41.7617 46.3746 41.2473 47.1461 40.5903 47.7899C39.9443 48.4184 39.1796 48.9156 38.3394 49.2532C36.5612 49.9541 34.5781 49.9541 32.7998 49.2532C31.9597 48.9156 31.195 48.4184 30.549 47.7899C29.8912 47.1462 29.376 46.3748 29.0359 45.5245C28.3057 43.6322 28.3057 41.5411 29.0359 39.6488C29.3772 38.7991 29.8923 38.0279 30.549 37.3834C31.1957 36.7565 31.9603 36.2602 32.7998 35.9225C34.5781 35.2217 36.5612 35.2217 38.3394 35.9225C39.1789 36.2602 39.9435 36.7565 40.5903 37.3834C41.2462 38.0281 41.7604 38.7992 42.1008 39.6488C42.8344 41.5405 42.8344 43.6328 42.1008 45.5245Z" fill="#007FDD"/>
<path d="M65.2847 47.0296C64.6212 47.8675 63.7882 48.56 62.8387 49.063C61.863 49.5533 60.7799 49.7991 59.6851 49.7787C58.7319 49.785 57.7863 49.6116 56.899 49.2678C56.053 48.9396 55.2825 48.447 54.6332 47.8193C53.9747 47.1736 53.4558 46.403 53.1076 45.5539C52.3573 43.6448 52.3573 41.528 53.1076 39.6189C53.457 38.7705 53.9758 38.0001 54.6332 37.3536C55.2826 36.7266 56.0532 36.2348 56.899 35.9075C57.7863 35.5637 58.7319 35.3903 59.6851 35.3967C60.6965 35.3714 61.6988 35.5917 62.6037 36.0383C63.431 36.4752 64.1688 37.0601 64.7795 37.7632L67.5955 35.0734C66.6363 33.999 65.4609 33.1334 64.1442 32.5316C62.7295 31.9231 61.198 31.6243 59.6551 31.6555C58.1458 31.6414 56.6492 31.9293 55.2559 32.502C53.9424 33.0357 52.749 33.8207 51.7446 34.8118C50.7401 35.8029 49.9446 36.9804 49.4037 38.2765C48.26 41.0398 48.26 44.1355 49.4037 46.8988C49.9446 48.1948 50.7402 49.3724 51.7446 50.3635C52.749 51.3546 53.9424 52.1396 55.2559 52.6733C56.7163 53.254 58.2794 53.5414 59.8537 53.5185C61.4281 53.4956 62.9819 53.163 64.4243 52.5401C65.8609 51.8776 67.1271 50.9032 68.1282 49.6898L65.2847 47.0296Z" fill="#007FDD"/>
<path d="M69.9062 32.1221V35.8632H75.831V53.0534H79.83V35.8632H85.7547V32.1221H69.9062Z" fill="#007FDD"/>
<path d="M107.988 38.3034C107.454 37.0032 106.663 35.8208 105.661 34.8249C104.659 33.8289 103.467 33.0392 102.154 32.5017C99.3316 31.3731 96.175 31.3731 93.3529 32.5017C92.0392 33.0404 90.8467 33.8305 89.8441 34.8263C88.847 35.8251 88.0569 37.0061 87.5182 38.3034C86.3911 41.0503 86.3911 44.122 87.5182 46.8689C88.0563 48.1672 88.8464 49.3492 89.8441 50.3484C90.8467 51.3443 92.0392 52.1343 93.3529 52.6731C96.175 53.8016 99.3315 53.8016 102.154 52.6731C103.468 52.1355 104.66 51.3456 105.662 50.3492C106.663 49.3527 107.454 48.1697 107.988 46.8689C109.115 44.122 109.115 41.0503 107.988 38.3034ZM104.287 45.524C103.946 46.3738 103.431 47.1451 102.774 47.7894C102.128 48.4179 101.363 48.9151 100.523 49.2527C98.7448 49.9536 96.7617 49.9536 94.9835 49.2527C94.1434 48.9151 93.3786 48.4179 92.7326 47.7894C92.0756 47.1456 91.5612 46.3742 91.2221 45.524C90.4885 43.6323 90.4885 41.54 91.2221 39.6483C91.5625 38.7988 92.0767 38.0276 92.7326 37.3829C93.3794 36.756 94.144 36.2597 94.9835 35.922C96.7617 35.2212 98.7448 35.2212 100.523 35.922C101.363 36.2597 102.127 36.756 102.774 37.3829C103.43 38.0281 103.945 38.7991 104.287 39.6483C105.017 41.5406 105.017 43.6317 104.287 45.524Z" fill="#007FDD"/>
<path d="M122.31 44.7789L122.34 44.574C122.961 44.3558 123.549 44.0561 124.089 43.6832C124.631 43.3121 125.12 42.8696 125.542 42.3679C125.958 41.8693 126.288 41.3065 126.519 40.7022C126.758 40.0709 126.879 39.4019 126.875 38.728C126.884 37.8219 126.713 36.9229 126.369 36.0826C126.047 35.2929 125.558 34.5803 124.934 33.9924C124.287 33.3931 123.526 32.926 122.696 32.6178C121.768 32.2768 120.784 32.1086 119.794 32.1218H112.062V53.0532H116.061V45.1885H117.926L123.408 53.0532H128V52.8188L122.31 44.7789ZM119.764 41.5634H116.061V35.7469H119.822C120.275 35.7392 120.724 35.8241 121.142 35.9962C121.506 36.1473 121.834 36.3707 122.105 36.6526C122.359 36.9235 122.555 37.2414 122.683 37.5879C122.81 37.9345 122.875 38.3002 122.876 38.6688C122.887 39.0565 122.814 39.4421 122.664 39.8002C122.513 40.1584 122.287 40.4809 122 40.7466C121.394 41.3005 120.59 41.5943 119.764 41.5634Z" fill="#007FDD"/>
<path d="M3.28533 38.2729H5.16608L8.45141 46.9015H6.63171L5.91107 44.8407H2.54034L1.8197 46.9015H0L3.28533 38.2729ZM5.37371 43.3464L4.59203 41.1893L4.27449 40.1408H4.17692L3.85938 41.1893L3.0777 43.3464H5.37371Z" fill="#007FDD"/>
<path d="M112.12 63.8452V62.695C112.506 62.3213 112.861 61.9733 113.188 61.651L113.609 61.2354C113.753 61.0937 113.887 60.9616 114.011 60.839C114.135 60.7167 114.246 60.6056 114.344 60.5056C114.442 60.4057 114.517 60.3267 114.569 60.2687C114.674 60.1464 114.767 60.0369 114.849 59.94C114.924 59.8523 114.99 59.7567 115.044 59.655C115.092 59.5657 115.129 59.4717 115.157 59.3746C115.184 59.2753 115.197 59.1729 115.196 59.0701C115.196 58.9649 115.173 58.861 115.13 58.7652C115.086 58.6693 115.022 58.5838 114.942 58.5143C114.75 58.3487 114.5 58.2636 114.246 58.2775C114.121 58.27 113.995 58.288 113.877 58.3304C113.759 58.3728 113.651 58.4387 113.56 58.524C113.403 58.6782 113.288 58.8695 113.227 59.0798L112.062 58.6062C112.121 58.4167 112.207 58.2361 112.316 58.0697C112.438 57.8818 112.59 57.7151 112.767 57.5766C112.963 57.4241 113.183 57.3034 113.418 57.219C113.69 57.1222 113.977 57.0747 114.266 57.0789C114.579 57.0746 114.891 57.1253 115.187 57.2287C115.444 57.3186 115.68 57.4583 115.882 57.6395C116.07 57.8119 116.22 58.0209 116.323 58.2534C116.428 58.4927 116.482 58.7512 116.48 59.0121C116.483 59.4113 116.376 59.8039 116.171 60.1479C115.962 60.4973 115.71 60.8203 115.422 61.1097L114.579 61.941C114.357 62.1602 114.105 62.405 113.825 62.6756L113.864 62.7336H116.578V63.8452H112.12Z" fill="#007FDD"/>
<path d="M120.496 63.8451V62.6272H117.4V61.6025L120.378 57.2334H121.769V61.4479H122.612V62.6272H121.769V63.8451H120.496ZM120.496 59.1183H120.418L118.821 61.4479H120.496V59.1183Z" fill="#007FDD"/>
<path d="M123.758 63.41L126.55 58.49L126.52 58.432H123.435L123.454 57.2334H128V58.49L124.835 63.9998L123.758 63.41Z" fill="#007FDD"/>
</svg>
