<svg version="1.1" id="Layer_1" xmlns="http://www.w3.org/2000/svg" xmlns:xlink="http://www.w3.org/1999/xlink" x="0px" y="0px"
	 width="100%" viewBox="0 0 673 371" enable-background="new 0 0 673 371" xml:space="preserve">
<path fill="#010101" opacity="1.000000" stroke="none" 
	d="
M431.000000,372.000000 
	C287.367584,372.000000 144.235184,372.000000 1.051392,372.000000 
	C1.051392,248.397202 1.051392,124.794388 1.051392,1.095785 
	C225.215759,1.095785 449.431580,1.095785 673.823730,1.095785 
	C673.823730,124.666466 673.823730,248.333206 673.823730,372.000000 
	C593.127686,372.000000 512.313843,372.000000 431.000000,372.000000 
M408.760498,269.173004 
	C443.450470,265.929535 473.281647,237.167419 476.891907,202.483261 
	C478.214142,189.780273 477.673828,176.872864 477.780762,164.057022 
	C477.881805,151.948135 472.889252,147.027618 460.877563,147.000839 
	C453.605865,146.984619 446.334106,146.997864 439.016693,146.997864 
	C439.016693,143.652252 439.016693,141.049393 439.016693,137.813980 
	C446.998047,137.813980 454.777222,137.880875 462.554779,137.797104 
	C472.334686,137.691757 477.690643,132.373947 477.788788,122.603004 
	C477.885834,112.942291 477.936768,103.277817 477.785248,93.618477 
	C477.077820,48.518330 443.392151,15.364505 398.354889,15.358256 
	C378.365173,15.355482 358.375458,15.357856 338.385742,15.357890 
	C336.618469,15.357893 334.851196,15.357889 333.032166,15.357889 
	C333.032166,100.517426 333.032166,185.007248 333.032166,269.772491 
	C350.443665,269.772491 367.424652,269.822205 384.405090,269.750366 
	C392.224548,269.717285 400.043030,269.446289 408.760498,269.173004 
M203.727448,226.805313 
	C215.510559,249.607361 233.987732,264.000763 259.198303,268.299042 
	C270.897430,270.293640 283.091949,269.438782 295.065216,269.746002 
	C301.178864,269.902924 307.299835,269.773499 313.711731,269.773499 
	C313.711731,184.796539 313.711731,100.410484 313.711731,15.356540 
	C301.229889,15.356540 288.930298,14.941554 276.674683,15.496648 
	C267.926178,15.892896 259.023804,16.742180 250.559219,18.862703 
	C220.424637,26.411903 195.709183,58.395042 195.631012,89.346413 
	C195.545593,123.171638 195.720139,156.997482 195.658127,190.822830 
	C195.635422,203.200714 197.993637,214.983459 203.727448,226.805313 
M188.761047,353.291199 
	C188.756256,341.803131 188.783569,330.314911 188.729309,318.827087 
	C188.710190,314.777222 187.607178,311.107147 183.502869,309.391022 
	C179.297180,307.632477 175.063004,307.583801 171.154800,310.369110 
	C170.100342,311.120575 169.135574,311.997894 169.210449,311.936890 
	C164.798050,310.521667 161.300415,308.455048 157.872574,308.564941 
	C154.415009,308.675781 151.026718,310.946747 147.500198,312.313141 
	C146.862442,311.435333 145.962051,310.196075 145.061661,308.956787 
	C144.684097,309.064606 144.306519,309.172424 143.928955,309.280243 
	C143.928955,325.985107 143.928955,342.689941 143.928955,359.783508 
	C145.638748,359.705566 147.208237,359.634033 149.171127,359.544556 
	C149.171127,357.294495 149.170959,355.484131 149.171143,353.673798 
	C149.172272,343.350861 149.120926,333.027496 149.196945,322.705109 
	C149.234619,317.588104 153.215103,313.410919 157.813858,313.672638 
	C163.408218,313.990967 163.040100,318.204285 163.037460,322.106293 
	C163.032288,329.765259 163.036606,337.424225 163.036835,345.083191 
	C163.036972,349.848541 163.036850,354.613892 163.036850,359.469666 
	C165.357544,359.469666 166.925400,359.469666 169.046738,359.469666 
	C169.046738,357.353149 169.046555,355.564026 169.046783,353.774902 
	C169.048126,343.451935 169.005722,333.128723 169.069611,322.806152 
	C169.101166,317.707062 173.076157,313.392944 177.583649,313.672241 
	C183.114532,314.014923 182.840652,318.241241 182.851440,322.138245 
	C182.871719,329.464142 182.857849,336.790161 182.858047,344.116119 
	C182.858185,349.209778 182.858093,354.303467 182.858093,359.458313 
	C185.163574,359.458313 186.726410,359.458313 188.761169,359.458313 
	C188.761169,357.483459 188.761169,355.853210 188.761047,353.291199 
M403.477142,336.501221 
	C403.484558,331.508148 403.348846,326.509521 403.542358,321.523682 
	C403.712250,317.146759 408.014374,313.331268 412.225250,313.635010 
	C417.080017,313.985260 417.315216,317.507721 417.303406,321.230347 
	C417.268585,332.215210 417.292542,343.200195 417.293488,354.185150 
	C417.293640,355.932434 417.293518,357.679718 417.293518,359.823608 
	C419.699982,359.697174 421.264801,359.614960 423.210205,359.512756 
	C423.210205,356.755798 423.209961,354.449310 423.210205,352.142822 
	C423.211334,342.322937 423.145142,332.502411 423.241699,322.683472 
	C423.291473,317.624847 427.424713,313.343536 431.913422,313.654449 
	C437.478821,314.039917 437.094543,318.289429 437.104645,322.158630 
	C437.126831,330.646942 437.112152,339.135345 437.112457,347.623718 
	C437.112579,351.552704 437.112488,355.481689 437.112488,359.820679 
	C439.476410,359.694916 441.045593,359.611420 442.879608,359.513855 
	C442.879608,344.987274 443.237488,330.865356 442.730255,316.774567 
	C442.472656,309.619385 433.834991,305.883881 427.051086,309.382385 
	C425.334320,310.267731 423.872253,311.646912 423.455536,311.951019 
	C419.055817,310.541321 415.548676,308.464417 412.119995,308.586731 
	C408.683105,308.709351 405.324524,311.026550 401.774475,312.444641 
	C401.168030,311.583618 400.217712,310.234406 399.267426,308.885162 
	C398.890198,309.022827 398.513000,309.160461 398.135773,309.298126 
	C398.135773,325.937378 398.135773,342.576660 398.135773,359.506592 
	C399.670166,359.506592 401.251038,359.506592 403.477020,359.506592 
	C403.477020,352.056213 403.477020,344.778534 403.477142,336.501221 
M288.692200,339.499756 
	C288.605103,332.174927 288.812225,324.831146 288.341522,317.531067 
	C287.935547,311.234253 284.388489,307.961182 278.153809,308.472626 
	C274.451782,308.776306 270.889526,310.783936 266.865784,312.161957 
	C261.189758,306.684937 257.275940,306.678680 247.763687,312.752502 
	C246.750229,311.478851 245.736771,310.205231 244.723328,308.931610 
	C244.348602,309.078705 243.973877,309.225830 243.599152,309.372955 
	C243.599152,325.988098 243.599152,342.603271 243.599152,359.360687 
	C245.355270,359.360687 247.039017,359.360687 249.075180,359.360687 
	C249.075180,357.111359 249.074844,355.297394 249.075226,353.483398 
	C249.077484,342.989624 249.016708,332.495239 249.112000,322.002319 
	C249.152573,317.534485 253.085739,313.595917 257.337830,313.660370 
	C262.481537,313.738342 262.910309,317.358124 262.895874,321.328339 
	C262.855896,332.321686 262.871185,343.315308 262.896362,354.308746 
	C262.900360,356.059387 263.068176,357.809631 263.177765,359.892761 
	C265.381348,359.709625 266.944153,359.579773 268.845551,359.421753 
	C268.845551,349.983093 268.843292,341.009613 268.846680,332.036163 
	C268.847992,328.538330 268.703766,325.031128 268.910156,321.545044 
	C269.166992,317.207733 273.588440,313.267700 277.662567,313.653595 
	C282.512848,314.113007 282.620453,317.794586 282.651276,321.418976 
	C282.682465,325.083191 282.661072,328.747925 282.661255,332.412415 
	C282.661774,341.374847 282.661438,350.337280 282.661438,359.546204 
	C284.832764,359.546204 286.429077,359.546204 288.692169,359.546204 
	C288.692169,353.066162 288.692169,346.782745 288.692200,339.499756 
M561.007874,352.321747 
	C563.527100,359.592438 570.852661,362.659546 579.386841,360.016632 
	C585.616699,358.087341 588.047302,352.900085 586.037598,345.703339 
	C584.475464,345.703339 582.894653,345.703339 581.104858,345.703339 
	C580.982544,347.481445 580.960999,348.961884 580.765137,350.418915 
	C580.222107,354.458252 577.183594,355.432281 573.862244,355.440613 
	C570.573914,355.448914 567.199280,354.636230 566.903442,350.563446 
	C566.570862,345.983856 566.826965,341.361481 566.826965,336.112000 
	C573.738525,336.112000 580.120300,336.112000 586.501587,336.112000 
	C586.677734,334.819031 586.839905,334.168518 586.843323,333.517181 
	C586.867798,328.858337 586.985107,324.195221 586.834290,319.541229 
	C586.582703,311.775604 582.324585,308.259460 573.501465,308.301910 
	C565.055908,308.342499 560.889404,311.889557 560.807678,319.566376 
	C560.694336,330.212738 560.842896,340.861908 561.007874,352.321747 
M222.390030,336.486572 
	C222.382568,339.984589 222.517990,343.490173 222.332764,346.978729 
	C222.080765,351.725037 217.461807,355.843842 212.940506,355.415344 
	C207.781403,354.926392 207.859528,351.041870 207.861908,347.253174 
	C207.868729,336.425812 207.873138,325.598419 207.850998,314.771118 
	C207.847397,313.007965 207.703812,311.245087 207.622665,309.432068 
	C205.455276,309.432068 203.865921,309.432068 202.019714,309.432068 
	C202.019714,323.870361 201.834900,338.001984 202.119568,352.124146 
	C202.219681,357.090637 205.737747,360.469788 210.546051,360.347076 
	C215.020096,360.232849 219.449753,358.379669 224.458679,357.155212 
	C224.604294,357.356018 225.581406,358.703400 226.558533,360.050812 
	C226.941437,359.906494 227.324341,359.762207 227.707245,359.617920 
	C227.707245,342.978699 227.707245,326.339478 227.707245,309.405396 
	C226.182846,309.405396 224.595901,309.405396 222.390121,309.405396 
	C222.390121,318.247070 222.390121,326.869232 222.390030,336.486572 
M17.516470,319.143188 
	C17.513092,329.108154 17.411657,339.074341 17.537006,349.037689 
	C17.639395,357.175995 21.778521,360.657379 30.915400,360.658264 
	C39.992001,360.659119 44.149418,357.177368 44.286194,349.016022 
	C44.447578,339.385925 44.426109,329.749786 44.295601,320.118774 
	C44.195625,312.741425 40.644772,309.016541 33.544453,308.370789 
	C23.743484,307.479431 19.143637,310.332733 17.516470,319.143188 
M356.933716,324.564606 
	C356.934052,332.537537 356.890869,340.510803 356.946655,348.483337 
	C357.005402,356.872253 360.926300,360.552338 369.781830,360.671082 
	C379.424011,360.800323 383.704620,357.234467 383.826538,348.634460 
	C383.958374,339.334564 383.931976,330.030670 383.838501,320.729858 
	C383.755066,312.433197 379.890961,308.589203 371.644226,308.311371 
	C360.407745,307.932800 356.941284,311.533691 356.933716,324.564606 
M518.053406,331.500061 
	C518.053406,324.228790 518.053406,316.957489 518.053406,309.418640 
	C515.872131,309.418640 514.314819,309.418640 512.144165,309.418640 
	C512.144165,311.488251 512.144958,313.270142 512.144043,315.052063 
	C512.138733,325.697662 512.233154,336.344727 512.079956,346.988220 
	C512.015503,351.468658 507.582764,355.437927 503.200653,355.442963 
	C499.171051,355.447632 497.654785,353.282166 497.627594,347.259430 
	C497.589294,338.776337 497.615479,330.292969 497.614471,321.809723 
	C497.613983,317.718811 497.614380,313.627899 497.614380,309.414307 
	C495.253204,309.414307 493.670624,309.414307 491.852142,309.414307 
	C491.852142,323.981659 491.642487,338.253448 491.965363,352.513153 
	C492.079041,357.533234 495.916870,360.591248 500.662354,360.406647 
	C505.002808,360.237793 509.277954,358.390839 513.886108,357.205109 
	C514.154114,357.824005 514.882263,359.505524 515.610413,361.187012 
	C516.424744,360.567383 517.239075,359.947754 518.053406,359.328125 
	C518.053406,350.385437 518.053406,341.442719 518.053406,331.500061 
M654.373047,356.797180 
	C657.981506,349.986298 657.237854,343.839783 651.909241,338.606720 
	C647.630676,334.404907 643.186584,330.369049 638.754150,326.327332 
	C635.641357,323.488892 634.424561,319.602081 636.766113,316.545044 
	C638.231445,314.631958 642.257141,313.933380 645.103577,313.999390 
	C649.387024,314.098785 650.143188,317.582428 649.945374,321.272522 
	C649.884827,322.402679 650.096863,323.547424 650.199036,324.880249 
	C652.112549,324.880249 653.849976,324.880249 655.786011,324.880249 
	C655.795105,319.416351 656.871704,314.008667 651.830750,310.360535 
	C646.842346,306.750397 635.927979,307.823303 632.307129,312.123352 
	C628.289734,316.894348 629.248352,324.875610 634.609253,330.141907 
	C638.887817,334.344971 643.325134,338.385895 647.644653,342.547913 
	C650.545532,345.343109 652.348999,349.284882 649.682068,352.278839 
	C647.850281,354.335297 643.594482,354.998413 640.449890,354.933838 
	C636.119507,354.844940 635.581421,351.197083 635.793518,347.563538 
	C635.858276,346.453888 635.657593,345.328735 635.574890,344.160126 
	C633.561646,344.160126 631.864014,344.160126 630.218262,344.160126 
	C629.241333,353.542664 630.592773,357.700134 635.863403,359.456085 
	C642.054871,361.518768 648.310852,361.800842 654.373047,356.797180 
M319.572388,316.429108 
	C319.460449,327.411102 319.322876,338.392914 319.248962,349.375183 
	C319.218658,353.878357 320.694061,357.728851 325.211823,359.389587 
	C330.913361,361.485443 336.788177,361.843658 341.849182,357.907532 
	C345.854645,354.792419 345.780518,350.250702 344.776367,345.367584 
	C342.967010,345.468384 341.385834,345.556488 339.658783,345.652710 
	C339.529449,346.867157 339.421295,347.669342 339.361938,348.475098 
	C338.988403,353.546875 337.035278,355.515045 332.360046,355.513062 
	C327.467773,355.510986 325.153412,353.243408 325.111633,348.095398 
	C325.038727,339.103912 325.046387,330.111145 325.107574,321.119507 
	C325.143951,315.769958 327.194763,313.666290 332.167908,313.582550 
	C337.220856,313.497528 339.230194,315.520782 339.349854,320.862640 
	C339.389923,322.652191 339.356201,324.443420 339.356201,326.392761 
	C341.622253,326.392761 343.295441,326.392761 344.917358,326.392761 
	C346.097198,315.002625 344.209167,310.700470 337.446228,308.835297 
	C329.351410,306.602753 322.776337,309.128906 319.572388,316.429108 
M57.215218,323.509766 
	C57.215218,335.424103 57.215218,347.338470 57.215218,359.792114 
	C59.516018,359.680756 61.185505,359.599976 63.311111,359.497101 
	C63.311111,354.344360 63.311111,349.767914 63.311111,344.639984 
	C66.418640,344.639984 69.060265,344.826355 71.666664,344.602478 
	C77.717438,344.082642 81.428474,340.646637 81.745598,334.885223 
	C82.037193,329.587646 82.020073,324.248108 81.724121,318.950195 
	C81.430817,313.699860 78.282135,310.030090 73.109261,309.482849 
	C68.075211,308.950226 62.940712,309.367157 57.215244,309.367157 
	C57.215244,313.975616 57.215244,318.245728 57.215218,323.509766 
M462.194031,350.350433 
	C462.289276,348.604340 462.384491,346.858215 462.504669,344.654785 
	C465.458038,344.654785 467.935394,344.812927 470.385956,344.623840 
	C476.661285,344.139679 480.427734,340.660278 480.763763,334.639191 
	C481.050201,329.506622 481.007782,324.335144 480.751770,319.198761 
	C480.501709,314.181885 477.812622,310.342865 472.793243,309.710205 
	C467.485168,309.041168 462.027374,309.560089 456.552002,309.560089 
	C456.552002,326.405090 456.552002,342.906860 456.552002,359.492554 
	C458.536163,359.492554 460.122345,359.492554 462.193695,359.492554 
	C462.193695,356.562958 462.193695,353.934326 462.194031,350.350433 
M92.401619,348.223938 
	C92.624046,357.476685 96.325371,361.477448 103.894066,360.646118 
	C111.226387,359.840759 113.971542,353.228424 111.689987,341.792358 
	C108.028236,340.588135 105.935577,341.318634 106.309082,345.782990 
	C106.487213,347.912170 106.551559,350.210846 105.915123,352.190887 
	C105.504196,353.469330 103.766029,355.070618 102.554161,355.130035 
	C101.356964,355.188721 99.611420,353.736023 98.952682,352.496582 
	C98.234207,351.144745 98.351952,349.277130 98.340897,347.632782 
	C98.288338,339.819855 98.315735,332.006409 98.315430,324.193146 
	C98.315071,314.807251 98.315697,314.812347 107.414223,314.294861 
	C108.065819,314.257751 108.708755,314.068420 109.637817,313.898224 
	C109.637817,312.463867 109.637817,311.072205 109.637817,309.390808 
	C103.952560,309.390808 98.541000,309.390808 92.400772,309.390808 
	C92.400772,322.127777 92.400772,334.707672 92.401619,348.223938 
M537.850708,341.457764 
	C537.850708,332.544647 537.850708,323.631531 537.850708,314.234650 
	C542.146851,314.234650 545.582214,314.234650 549.410706,314.234650 
	C549.274414,312.291260 549.175720,310.883240 549.077209,309.478943 
	C543.256165,309.478943 537.856689,309.478943 532.104126,309.478943 
	C532.104126,324.139069 531.898010,338.434448 532.216614,352.718140 
	C532.327271,357.677551 536.264709,360.503906 541.470581,360.674469 
	C547.019775,360.856262 550.689148,358.201202 551.539368,353.067352 
	C551.916809,350.788361 551.646301,348.409943 551.853149,346.093048 
	C552.252441,341.620300 550.465027,340.321625 545.882324,342.145325 
	C545.882324,344.888519 546.369812,347.811523 545.715027,350.451172 
	C545.260559,352.283661 543.234375,353.726318 541.910400,355.343109 
	C540.576477,353.708099 538.579529,352.254089 538.071716,350.393585 
	C537.393127,347.907684 537.870056,345.106384 537.850708,341.457764 
M609.844360,309.155823 
	C608.341675,310.554016 606.839050,311.952179 605.412903,313.279205 
	C604.166504,311.683411 603.095581,310.312378 602.024719,308.941315 
	C601.662048,309.124115 601.299377,309.306915 600.936707,309.489746 
	C600.936707,326.129913 600.936707,342.770081 600.936707,359.804077 
	C602.932007,359.681732 604.483521,359.586578 606.414062,359.468201 
	C606.414062,357.353455 606.413940,355.711914 606.414062,354.070343 
	C606.414978,344.413635 606.161072,334.746460 606.558167,325.106079 
	C606.693176,321.827820 608.137817,318.446960 609.671997,315.467224 
	C610.214478,314.413513 612.964966,313.776550 614.407532,314.139862 
	C615.511719,314.417969 616.488953,316.470673 616.896973,317.911255 
	C617.373352,319.593353 617.169800,321.468048 617.336182,324.729126 
	C619.646973,323.462158 622.205200,322.916077 622.538452,321.739716 
	C624.965637,313.171173 619.445679,307.400146 609.844360,309.155823 
M128.382584,355.028748 
	C128.382584,339.857086 128.382584,324.685455 128.382584,309.090820 
	C125.965569,309.273499 124.431625,309.389404 122.843575,309.509430 
	C122.843575,326.408081 122.843575,342.779724 122.843575,359.393066 
	C126.009132,359.961853 128.833160,360.616211 128.382584,355.028748 
z"/>
<path fill="#7CDF6D" opacity="1.000000" stroke="none" 
	d="
M408.311218,269.228088 
	C400.043030,269.446289 392.224548,269.717285 384.405090,269.750366 
	C367.424652,269.822205 350.443665,269.772491 333.032166,269.772491 
	C333.032166,185.007248 333.032166,100.517426 333.032166,15.357889 
	C334.851196,15.357889 336.618469,15.357893 338.385742,15.357890 
	C358.375458,15.357856 378.365173,15.355482 398.354889,15.358256 
	C443.392151,15.364505 477.077820,48.518330 477.785248,93.618477 
	C477.936768,103.277817 477.885834,112.942291 477.788788,122.603004 
	C477.690643,132.373947 472.334686,137.691757 462.554779,137.797104 
	C454.777222,137.880875 446.998047,137.813980 439.016693,137.813980 
	C439.016693,141.049393 439.016693,143.652252 439.016693,146.997864 
	C446.334106,146.997864 453.605865,146.984619 460.877563,147.000839 
	C472.889252,147.027618 477.881805,151.948135 477.780762,164.057022 
	C477.673828,176.872864 478.214142,189.780273 476.891907,202.483261 
	C473.281647,237.167419 443.450470,265.929535 408.311218,269.228088 
M349.524506,258.492279 
	C366.512665,258.492126 383.500946,258.525146 400.488983,258.484589 
	C431.992310,258.409363 459.614075,236.606918 464.860382,205.681122 
	C467.284821,191.389832 466.170319,176.494293 466.595581,161.870819 
	C466.687286,158.717041 464.568176,158.127518 461.905212,158.145004 
	C453.411530,158.200775 444.914856,158.059875 436.425262,158.254776 
	C434.821045,158.291626 432.862793,159.135315 431.719238,160.265656 
	C426.054199,165.865143 419.335052,168.408722 411.428802,168.314362 
	C402.602905,168.209000 393.774384,168.240463 384.947693,168.308212 
	C372.368225,168.404770 363.761169,162.683289 358.927704,151.053665 
	C358.420685,149.833725 356.874817,148.350342 355.690369,148.235809 
	C351.939301,147.873077 348.131012,148.101791 344.172150,148.101791 
	C344.172150,185.172592 344.172150,221.689209 344.172150,258.492065 
	C345.881073,258.492065 347.203857,258.492065 349.524506,258.492279 
M422.978058,30.325230 
	C418.123505,29.198694 413.288971,27.208260 408.410919,27.095140 
	C387.273468,26.604979 366.123291,26.661194 344.977631,26.544106 
	C344.723389,26.542696 344.467346,26.876926 344.247192,27.030096 
	C344.247192,63.588478 344.247192,100.119049 344.247192,136.787354 
	C349.011658,136.787354 353.315826,136.787354 357.671417,136.787354 
	C358.083649,135.948669 358.499146,135.229752 358.802917,134.466400 
	C363.527130,122.595192 371.890442,116.792313 384.468201,116.748543 
	C393.633728,116.716644 402.834229,116.271729 411.951477,116.937683 
	C417.076233,117.311996 423.496185,118.089630 426.803650,121.295052 
	C432.993591,127.294037 439.780304,126.875610 447.004913,126.822968 
	C451.504211,126.790176 456.015411,126.615631 460.500122,126.873024 
	C464.924805,127.126961 466.875183,125.684982 466.724243,120.942535 
	C466.443451,112.119095 466.846100,103.274788 466.604187,94.449043 
	C465.774200,64.167313 452.001984,42.491051 422.978058,30.325230 
M392.767792,144.491562 
	C392.767792,148.579422 392.767792,152.667297 392.767792,156.756592 
	C396.806366,156.756592 400.045410,156.756592 403.481201,156.756592 
	C403.481201,147.019135 403.481201,137.627411 403.481201,127.956482 
	C399.905396,127.956482 396.660492,127.956482 392.767792,127.956482 
	C392.767792,133.278458 392.767792,138.386612 392.767792,144.491562 
M381.557587,129.502838 
	C380.784973,129.147079 379.924377,128.363968 379.253387,128.502060 
	C372.947693,129.799713 368.295227,136.637787 368.817719,143.621246 
	C369.339172,150.591644 374.246613,155.613983 381.626282,156.207062 
	C381.626282,147.561615 381.626282,138.948517 381.557587,129.502838 
M424.818329,133.837585 
	C421.921417,131.710724 419.024475,129.583847 415.184204,126.764381 
	C415.184204,137.800186 415.184204,147.020081 415.184204,156.275269 
	C426.069641,154.832031 430.550201,144.840805 424.818329,133.837585 
z"/>
<path fill="#7CDF6C" opacity="1.000000" stroke="none" 
	d="
M203.548172,226.475464 
	C197.993637,214.983459 195.635422,203.200714 195.658127,190.822830 
	C195.720139,156.997482 195.545593,123.171638 195.631012,89.346413 
	C195.709183,58.395042 220.424637,26.411903 250.559219,18.862703 
	C259.023804,16.742180 267.926178,15.892896 276.674683,15.496648 
	C288.930298,14.941554 301.229889,15.356540 313.711731,15.356540 
	C313.711731,100.410484 313.711731,184.796539 313.711731,269.773499 
	C307.299835,269.773499 301.178864,269.902924 295.065216,269.746002 
	C283.091949,269.438782 270.897430,270.293640 259.198303,268.299042 
	C233.987732,264.000763 215.510559,249.607361 203.548172,226.475464 
M302.847778,190.500046 
	C302.847870,155.836060 302.847809,121.172066 302.848083,86.508080 
	C302.848206,68.009476 302.850250,49.510876 302.847809,31.012272 
	C302.847473,28.697342 303.325867,26.198065 299.573181,26.305283 
	C287.425598,26.652359 275.175903,25.978813 263.143738,27.309586 
	C232.767700,30.669210 207.290192,58.558155 206.932816,88.864975 
	C206.516251,124.190186 206.573883,159.528839 207.039658,194.853577 
	C207.310532,215.395386 216.516083,231.947662 232.460419,244.831772 
	C253.392670,261.746460 278.047577,258.511322 302.847992,258.264496 
	C302.847992,235.736679 302.847992,213.618378 302.847778,190.500046 
z"/>
<path fill="#74D065" opacity="1.000000" stroke="none" 
	d="
M188.761108,353.757080 
	C188.761169,355.853210 188.761169,357.483459 188.761169,359.458313 
	C186.726410,359.458313 185.163574,359.458313 182.858093,359.458313 
	C182.858093,354.303467 182.858185,349.209778 182.858047,344.116119 
	C182.857849,336.790161 182.871719,329.464142 182.851440,322.138245 
	C182.840652,318.241241 183.114532,314.014923 177.583649,313.672241 
	C173.076157,313.392944 169.101166,317.707062 169.069611,322.806152 
	C169.005722,333.128723 169.048126,343.451935 169.046783,353.774902 
	C169.046555,355.564026 169.046738,357.353149 169.046738,359.469666 
	C166.925400,359.469666 165.357544,359.469666 163.036850,359.469666 
	C163.036850,354.613892 163.036972,349.848541 163.036835,345.083191 
	C163.036606,337.424225 163.032288,329.765259 163.037460,322.106293 
	C163.040100,318.204285 163.408218,313.990967 157.813858,313.672638 
	C153.215103,313.410919 149.234619,317.588104 149.196945,322.705109 
	C149.120926,333.027496 149.172272,343.350861 149.171143,353.673798 
	C149.170959,355.484131 149.171127,357.294495 149.171127,359.544556 
	C147.208237,359.634033 145.638748,359.705566 143.928955,359.783508 
	C143.928955,342.689941 143.928955,325.985107 143.928955,309.280243 
	C144.306519,309.172424 144.684097,309.064606 145.061661,308.956787 
	C145.962051,310.196075 146.862442,311.435333 147.500198,312.313141 
	C151.026718,310.946747 154.415009,308.675781 157.872574,308.564941 
	C161.300415,308.455048 164.798050,310.521667 169.210449,311.936890 
	C169.135574,311.997894 170.100342,311.120575 171.154800,310.369110 
	C175.063004,307.583801 179.297180,307.632477 183.502869,309.391022 
	C187.607178,311.107147 188.710190,314.777222 188.729309,318.827087 
	C188.783569,330.314911 188.756256,341.803131 188.761108,353.757080 
z"/>
<path fill="#76D467" opacity="1.000000" stroke="none" 
	d="
M403.477081,337.001038 
	C403.477020,344.778534 403.477020,352.056213 403.477020,359.506592 
	C401.251038,359.506592 399.670166,359.506592 398.135773,359.506592 
	C398.135773,342.576660 398.135773,325.937378 398.135773,309.298126 
	C398.513000,309.160461 398.890198,309.022827 399.267426,308.885162 
	C400.217712,310.234406 401.168030,311.583618 401.774475,312.444641 
	C405.324524,311.026550 408.683105,308.709351 412.119995,308.586731 
	C415.548676,308.464417 419.055817,310.541321 423.455536,311.951019 
	C423.872253,311.646912 425.334320,310.267731 427.051086,309.382385 
	C433.834991,305.883881 442.472656,309.619385 442.730255,316.774567 
	C443.237488,330.865356 442.879608,344.987274 442.879608,359.513855 
	C441.045593,359.611420 439.476410,359.694916 437.112488,359.820679 
	C437.112488,355.481689 437.112579,351.552704 437.112457,347.623718 
	C437.112152,339.135345 437.126831,330.646942 437.104645,322.158630 
	C437.094543,318.289429 437.478821,314.039917 431.913422,313.654449 
	C427.424713,313.343536 423.291473,317.624847 423.241699,322.683472 
	C423.145142,332.502411 423.211334,342.322937 423.210205,352.142822 
	C423.209961,354.449310 423.210205,356.755798 423.210205,359.512756 
	C421.264801,359.614960 419.699982,359.697174 417.293518,359.823608 
	C417.293518,357.679718 417.293640,355.932434 417.293488,354.185150 
	C417.292542,343.200195 417.268585,332.215210 417.303406,321.230347 
	C417.315216,317.507721 417.080017,313.985260 412.225250,313.635010 
	C408.014374,313.331268 403.712250,317.146759 403.542358,321.523682 
	C403.348846,326.509521 403.484558,331.508148 403.477081,337.001038 
z"/>
<path fill="#74D266" opacity="1.000000" stroke="none" 
	d="
M288.692200,339.999542 
	C288.692169,346.782745 288.692169,353.066162 288.692169,359.546204 
	C286.429077,359.546204 284.832764,359.546204 282.661438,359.546204 
	C282.661438,350.337280 282.661774,341.374847 282.661255,332.412415 
	C282.661072,328.747925 282.682465,325.083191 282.651276,321.418976 
	C282.620453,317.794586 282.512848,314.113007 277.662567,313.653595 
	C273.588440,313.267700 269.166992,317.207733 268.910156,321.545044 
	C268.703766,325.031128 268.847992,328.538330 268.846680,332.036163 
	C268.843292,341.009613 268.845551,349.983093 268.845551,359.421753 
	C266.944153,359.579773 265.381348,359.709625 263.177765,359.892761 
	C263.068176,357.809631 262.900360,356.059387 262.896362,354.308746 
	C262.871185,343.315308 262.855896,332.321686 262.895874,321.328339 
	C262.910309,317.358124 262.481537,313.738342 257.337830,313.660370 
	C253.085739,313.595917 249.152573,317.534485 249.112000,322.002319 
	C249.016708,332.495239 249.077484,342.989624 249.075226,353.483398 
	C249.074844,355.297394 249.075180,357.111359 249.075180,359.360687 
	C247.039017,359.360687 245.355270,359.360687 243.599152,359.360687 
	C243.599152,342.603271 243.599152,325.988098 243.599152,309.372955 
	C243.973877,309.225830 244.348602,309.078705 244.723328,308.931610 
	C245.736771,310.205231 246.750229,311.478851 247.764374,312.748291 
	C257.275940,306.678680 261.189758,306.684937 266.865784,312.161957 
	C270.889526,310.783936 274.451782,308.776306 278.153809,308.472626 
	C284.388489,307.961182 287.935547,311.234253 288.341522,317.531067 
	C288.812225,324.831146 288.605103,332.174927 288.692200,339.999542 
z"/>
<path fill="#75D266" opacity="1.000000" stroke="none" 
	d="
M560.943604,351.915802 
	C560.842896,340.861908 560.694336,330.212738 560.807678,319.566376 
	C560.889404,311.889557 565.055908,308.342499 573.501465,308.301910 
	C582.324585,308.259460 586.582703,311.775604 586.834290,319.541229 
	C586.985107,324.195221 586.867798,328.858337 586.843323,333.517181 
	C586.839905,334.168518 586.677734,334.819031 586.501587,336.112000 
	C580.120300,336.112000 573.738525,336.112000 566.826965,336.112000 
	C566.826965,341.361481 566.570862,345.983856 566.903442,350.563446 
	C567.199280,354.636230 570.573914,355.448914 573.862244,355.440613 
	C577.183594,355.432281 580.222107,354.458252 580.765137,350.418915 
	C580.960999,348.961884 580.982544,347.481445 581.104858,345.703339 
	C582.894653,345.703339 584.475464,345.703339 586.037598,345.703339 
	C588.047302,352.900085 585.616699,358.087341 579.386841,360.016632 
	C570.852661,362.659546 563.527100,359.592438 560.943604,351.915802 
M566.715149,318.928345 
	C566.715149,322.827545 566.715149,326.726715 566.715149,330.627319 
	C571.814087,330.627319 576.159790,330.627319 580.870178,330.627319 
	C580.870178,327.060760 580.770264,323.929382 580.896423,320.807098 
	C581.040833,317.236389 580.049438,314.469025 576.141479,313.864410 
	C572.227966,313.258972 568.372559,313.157898 566.715149,318.928345 
z"/>
<path fill="#73CF65" opacity="1.000000" stroke="none" 
	d="
M222.390076,335.988983 
	C222.390121,326.869232 222.390121,318.247070 222.390121,309.405396 
	C224.595901,309.405396 226.182846,309.405396 227.707245,309.405396 
	C227.707245,326.339478 227.707245,342.978699 227.707245,359.617920 
	C227.324341,359.762207 226.941437,359.906494 226.558533,360.050812 
	C225.581406,358.703400 224.604294,357.356018 224.458679,357.155212 
	C219.449753,358.379669 215.020096,360.232849 210.546051,360.347076 
	C205.737747,360.469788 202.219681,357.090637 202.119568,352.124146 
	C201.834900,338.001984 202.019714,323.870361 202.019714,309.432068 
	C203.865921,309.432068 205.455276,309.432068 207.622665,309.432068 
	C207.703812,311.245087 207.847397,313.007965 207.850998,314.771118 
	C207.873138,325.598419 207.868729,336.425812 207.861908,347.253174 
	C207.859528,351.041870 207.781403,354.926392 212.940506,355.415344 
	C217.461807,355.843842 222.080765,351.725037 222.332764,346.978729 
	C222.517990,343.490173 222.382568,339.984589 222.390076,335.988983 
z"/>
<path fill="#77D668" opacity="1.000000" stroke="none" 
	d="
M17.538738,318.714294 
	C19.143637,310.332733 23.743484,307.479431 33.544453,308.370789 
	C40.644772,309.016541 44.195625,312.741425 44.295601,320.118774 
	C44.426109,329.749786 44.447578,339.385925 44.286194,349.016022 
	C44.149418,357.177368 39.992001,360.659119 30.915400,360.658264 
	C21.778521,360.657379 17.639395,357.175995 17.537006,349.037689 
	C17.411657,339.074341 17.513092,329.108154 17.538738,318.714294 
M23.250237,339.455170 
	C23.255259,342.443542 23.174702,345.435028 23.284613,348.419556 
	C23.466520,353.359131 25.852188,355.552246 30.854134,355.557251 
	C35.993149,355.562408 38.340981,353.504791 38.398743,348.489746 
	C38.505817,339.193817 38.502571,329.894989 38.402939,320.598907 
	C38.348339,315.504089 36.148403,313.559143 30.920374,313.532227 
	C25.796726,313.505859 23.412785,315.573090 23.297771,320.538391 
	C23.159399,326.512024 23.255606,332.491119 23.250237,339.455170 
z"/>
<path fill="#76D367" opacity="1.000000" stroke="none" 
	d="
M356.933716,324.078430 
	C356.941284,311.533691 360.407745,307.932800 371.644226,308.311371 
	C379.890961,308.589203 383.755066,312.433197 383.838501,320.729858 
	C383.931976,330.030670 383.958374,339.334564 383.826538,348.634460 
	C383.704620,357.234467 379.424011,360.800323 369.781830,360.671082 
	C360.926300,360.552338 357.005402,356.872253 356.946655,348.483337 
	C356.890869,340.510803 356.934052,332.537537 356.933716,324.078430 
M362.776306,345.341431 
	C362.777802,346.005798 362.768066,346.670441 362.782471,347.334534 
	C362.911713,353.294037 364.907440,355.489655 370.236053,355.541901 
	C375.812897,355.596588 377.895294,353.330292 377.912170,347.080933 
	C377.935547,338.444153 377.954132,329.807007 377.903656,321.170441 
	C377.871338,315.638916 375.826294,313.605591 370.463654,313.544281 
	C365.130463,313.483337 362.858856,315.595795 362.803894,320.961731 
	C362.723938,328.767334 362.778625,336.574310 362.776306,345.341431 
z"/>
<path fill="#73CE64" opacity="1.000000" stroke="none" 
	d="
M518.053406,332.000061 
	C518.053406,341.442719 518.053406,350.385437 518.053406,359.328125 
	C517.239075,359.947754 516.424744,360.567383 515.610413,361.187012 
	C514.882263,359.505524 514.154114,357.824005 513.886108,357.205109 
	C509.277954,358.390839 505.002808,360.237793 500.662354,360.406647 
	C495.916870,360.591248 492.079041,357.533234 491.965363,352.513153 
	C491.642487,338.253448 491.852142,323.981659 491.852142,309.414307 
	C493.670624,309.414307 495.253204,309.414307 497.614380,309.414307 
	C497.614380,313.627899 497.613983,317.718811 497.614471,321.809723 
	C497.615479,330.292969 497.589294,338.776337 497.627594,347.259430 
	C497.654785,353.282166 499.171051,355.447632 503.200653,355.442963 
	C507.582764,355.437927 512.015503,351.468658 512.079956,346.988220 
	C512.233154,336.344727 512.138733,325.697662 512.144043,315.052063 
	C512.144958,313.270142 512.144165,311.488251 512.144165,309.418640 
	C514.314819,309.418640 515.872131,309.418640 518.053406,309.418640 
	C518.053406,316.957489 518.053406,324.228790 518.053406,332.000061 
z"/>
<path fill="#76D367" opacity="1.000000" stroke="none" 
	d="
M654.124756,357.079773 
	C648.310852,361.800842 642.054871,361.518768 635.863403,359.456085 
	C630.592773,357.700134 629.241333,353.542664 630.218262,344.160126 
	C631.864014,344.160126 633.561646,344.160126 635.574890,344.160126 
	C635.657593,345.328735 635.858276,346.453888 635.793518,347.563538 
	C635.581421,351.197083 636.119507,354.844940 640.449890,354.933838 
	C643.594482,354.998413 647.850281,354.335297 649.682068,352.278839 
	C652.348999,349.284882 650.545532,345.343109 647.644653,342.547913 
	C643.325134,338.385895 638.887817,334.344971 634.609253,330.141907 
	C629.248352,324.875610 628.289734,316.894348 632.307129,312.123352 
	C635.927979,307.823303 646.842346,306.750397 651.830750,310.360535 
	C656.871704,314.008667 655.795105,319.416351 655.786011,324.880249 
	C653.849976,324.880249 652.112549,324.880249 650.199036,324.880249 
	C650.096863,323.547424 649.884827,322.402679 649.945374,321.272522 
	C650.143188,317.582428 649.387024,314.098785 645.103577,313.999390 
	C642.257141,313.933380 638.231445,314.631958 636.766113,316.545044 
	C634.424561,319.602081 635.641357,323.488892 638.754150,326.327332 
	C643.186584,330.369049 647.630676,334.404907 651.909241,338.606720 
	C657.237854,343.839783 657.981506,349.986298 654.124756,357.079773 
z"/>
<path fill="#75D266" opacity="1.000000" stroke="none" 
	d="
M319.668182,316.028961 
	C322.776337,309.128906 329.351410,306.602753 337.446228,308.835297 
	C344.209167,310.700470 346.097198,315.002625 344.917358,326.392761 
	C343.295441,326.392761 341.622253,326.392761 339.356201,326.392761 
	C339.356201,324.443420 339.389923,322.652191 339.349854,320.862640 
	C339.230194,315.520782 337.220856,313.497528 332.167908,313.582550 
	C327.194763,313.666290 325.143951,315.769958 325.107574,321.119507 
	C325.046387,330.111145 325.038727,339.103912 325.111633,348.095398 
	C325.153412,353.243408 327.467773,355.510986 332.360046,355.513062 
	C337.035278,355.515045 338.988403,353.546875 339.361938,348.475098 
	C339.421295,347.669342 339.529449,346.867157 339.658783,345.652710 
	C341.385834,345.556488 342.967010,345.468384 344.776367,345.367584 
	C345.780518,350.250702 345.854645,354.792419 341.849182,357.907532 
	C336.788177,361.843658 330.913361,361.485443 325.211823,359.389587 
	C320.694061,357.728851 319.218658,353.878357 319.248962,349.375183 
	C319.322876,338.392914 319.460449,327.411102 319.668182,316.028961 
z"/>
<path fill="#75D266" opacity="1.000000" stroke="none" 
	d="
M57.215233,323.012817 
	C57.215244,318.245728 57.215244,313.975616 57.215244,309.367157 
	C62.940712,309.367157 68.075211,308.950226 73.109261,309.482849 
	C78.282135,310.030090 81.430817,313.699860 81.724121,318.950195 
	C82.020073,324.248108 82.037193,329.587646 81.745598,334.885223 
	C81.428474,340.646637 77.717438,344.082642 71.666664,344.602478 
	C69.060265,344.826355 66.418640,344.639984 63.311111,344.639984 
	C63.311111,349.767914 63.311111,354.344360 63.311111,359.497101 
	C61.185505,359.599976 59.516018,359.680756 57.215218,359.792114 
	C57.215218,347.338470 57.215218,335.424103 57.215233,323.012817 
M65.698303,339.602325 
	C74.926620,339.571472 75.941101,338.548065 75.947472,329.260803 
	C75.948616,327.595612 75.949081,325.930389 75.947266,324.265198 
	C75.937187,315.012085 72.659767,312.588593 63.113338,315.188538 
	C63.113338,322.368805 63.055340,329.667755 63.189865,336.963196 
	C63.205910,337.833252 64.271072,338.683960 65.698303,339.602325 
z"/>
<path fill="#75D266" opacity="1.000000" stroke="none" 
	d="
M462.193848,350.828064 
	C462.193695,353.934326 462.193695,356.562958 462.193695,359.492554 
	C460.122345,359.492554 458.536163,359.492554 456.552002,359.492554 
	C456.552002,342.906860 456.552002,326.405090 456.552002,309.560089 
	C462.027374,309.560089 467.485168,309.041168 472.793243,309.710205 
	C477.812622,310.342865 480.501709,314.181885 480.751770,319.198761 
	C481.007782,324.335144 481.050201,329.506622 480.763763,334.639191 
	C480.427734,340.660278 476.661285,344.139679 470.385956,344.623840 
	C467.935394,344.812927 465.458038,344.654785 462.504669,344.654785 
	C462.384491,346.858215 462.289276,348.604340 462.193848,350.828064 
M464.731628,314.289124 
	C463.887360,314.889526 462.321869,315.474274 462.308441,316.092743 
	C462.141083,323.809723 462.198883,331.531586 462.198883,339.118591 
	C473.061096,340.489685 474.901978,338.910797 474.907593,329.027130 
	C474.908630,327.199860 474.911316,325.372559 474.906586,323.545288 
	C474.886353,315.754303 473.595398,314.471527 464.731628,314.289124 
z"/>
<path fill="#73CE64" opacity="1.000000" stroke="none" 
	d="
M92.401199,347.755768 
	C92.400772,334.707672 92.400772,322.127777 92.400772,309.390808 
	C98.541000,309.390808 103.952560,309.390808 109.637817,309.390808 
	C109.637817,311.072205 109.637817,312.463867 109.637817,313.898224 
	C108.708755,314.068420 108.065819,314.257751 107.414223,314.294861 
	C98.315697,314.812347 98.315071,314.807251 98.315430,324.193146 
	C98.315735,332.006409 98.288338,339.819855 98.340897,347.632782 
	C98.351952,349.277130 98.234207,351.144745 98.952682,352.496582 
	C99.611420,353.736023 101.356964,355.188721 102.554161,355.130035 
	C103.766029,355.070618 105.504196,353.469330 105.915123,352.190887 
	C106.551559,350.210846 106.487213,347.912170 106.309082,345.782990 
	C105.935577,341.318634 108.028236,340.588135 111.689987,341.792358 
	C113.971542,353.228424 111.226387,359.840759 103.894066,360.646118 
	C96.325371,361.477448 92.624046,357.476685 92.401199,347.755768 
z"/>
<path fill="#74D065" opacity="1.000000" stroke="none" 
	d="
M537.850708,341.949158 
	C537.870056,345.106384 537.393127,347.907684 538.071716,350.393585 
	C538.579529,352.254089 540.576477,353.708099 541.910400,355.343109 
	C543.234375,353.726318 545.260559,352.283661 545.715027,350.451172 
	C546.369812,347.811523 545.882324,344.888519 545.882324,342.145325 
	C550.465027,340.321625 552.252441,341.620300 551.853149,346.093048 
	C551.646301,348.409943 551.916809,350.788361 551.539368,353.067352 
	C550.689148,358.201202 547.019775,360.856262 541.470581,360.674469 
	C536.264709,360.503906 532.327271,357.677551 532.216614,352.718140 
	C531.898010,338.434448 532.104126,324.139069 532.104126,309.478943 
	C537.856689,309.478943 543.256165,309.478943 549.077209,309.478943 
	C549.175720,310.883240 549.274414,312.291260 549.410706,314.234650 
	C545.582214,314.234650 542.146851,314.234650 537.850708,314.234650 
	C537.850708,323.631531 537.850708,332.544647 537.850708,341.949158 
z"/>
<path fill="#78D869" opacity="1.000000" stroke="none" 
	d="
M610.192932,308.991821 
	C619.445679,307.400146 624.965637,313.171173 622.538452,321.739716 
	C622.205200,322.916077 619.646973,323.462158 617.336182,324.729126 
	C617.169800,321.468048 617.373352,319.593353 616.896973,317.911255 
	C616.488953,316.470673 615.511719,314.417969 614.407532,314.139862 
	C612.964966,313.776550 610.214478,314.413513 609.671997,315.467224 
	C608.137817,318.446960 606.693176,321.827820 606.558167,325.106079 
	C606.161072,334.746460 606.414978,344.413635 606.414062,354.070343 
	C606.413940,355.711914 606.414062,357.353455 606.414062,359.468201 
	C604.483521,359.586578 602.932007,359.681732 600.936707,359.804077 
	C600.936707,342.770081 600.936707,326.129913 600.936707,309.489746 
	C601.299377,309.306915 601.662048,309.124115 602.024719,308.941315 
	C603.095581,310.312378 604.166504,311.683411 605.412903,313.279205 
	C606.839050,311.952179 608.341675,310.554016 610.192932,308.991821 
z"/>
<path fill="#7BDE6C" opacity="1.000000" stroke="none" 
	d="
M128.382507,355.471375 
	C128.833160,360.616211 126.009132,359.961853 122.843575,359.393066 
	C122.843575,342.779724 122.843575,326.408081 122.843575,309.509430 
	C124.431625,309.389404 125.965569,309.273499 128.382584,309.090820 
	C128.382584,324.685455 128.382584,339.857086 128.382507,355.471375 
z"/>
<path fill="#010201" opacity="1.000000" stroke="none" 
	d="
M349.025574,258.492188 
	C347.203857,258.492065 345.881073,258.492065 344.172150,258.492065 
	C344.172150,221.689209 344.172150,185.172592 344.172150,148.101791 
	C348.131012,148.101791 351.939301,147.873077 355.690369,148.235809 
	C356.874817,148.350342 358.420685,149.833725 358.927704,151.053665 
	C363.761169,162.683289 372.368225,168.404770 384.947693,168.308212 
	C393.774384,168.240463 402.602905,168.209000 411.428802,168.314362 
	C419.335052,168.408722 426.054199,165.865143 431.719238,160.265656 
	C432.862793,159.135315 434.821045,158.291626 436.425262,158.254776 
	C444.914856,158.059875 453.411530,158.200775 461.905212,158.145004 
	C464.568176,158.127518 466.687286,158.717041 466.595581,161.870819 
	C466.170319,176.494293 467.284821,191.389832 464.860382,205.681122 
	C459.614075,236.606918 431.992310,258.409363 400.488983,258.484589 
	C383.500946,258.525146 366.512665,258.492126 349.025574,258.492188 
z"/>
<path fill="#010201" opacity="1.000000" stroke="none" 
	d="
M423.342316,30.474010 
	C452.001984,42.491051 465.774200,64.167313 466.604187,94.449043 
	C466.846100,103.274788 466.443451,112.119095 466.724243,120.942535 
	C466.875183,125.684982 464.924805,127.126961 460.500122,126.873024 
	C456.015411,126.615631 451.504211,126.790176 447.004913,126.822968 
	C439.780304,126.875610 432.993591,127.294037 426.803650,121.295052 
	C423.496185,118.089630 417.076233,117.311996 411.951477,116.937683 
	C402.834229,116.271729 393.633728,116.716644 384.468201,116.748543 
	C371.890442,116.792313 363.527130,122.595192 358.802917,134.466400 
	C358.499146,135.229752 358.083649,135.948669 357.671417,136.787354 
	C353.315826,136.787354 349.011658,136.787354 344.247192,136.787354 
	C344.247192,100.119049 344.247192,63.588478 344.247192,27.030096 
	C344.467346,26.876926 344.723389,26.542696 344.977631,26.544106 
	C366.123291,26.661194 387.273468,26.604979 408.410919,27.095140 
	C413.288971,27.208260 418.123505,29.198694 423.342316,30.474010 
z"/>
<path fill="#040804" opacity="1.000000" stroke="none" 
	d="
M392.767792,143.993164 
	C392.767792,138.386612 392.767792,133.278458 392.767792,127.956482 
	C396.660492,127.956482 399.905396,127.956482 403.481201,127.956482 
	C403.481201,137.627411 403.481201,147.019135 403.481201,156.756592 
	C400.045410,156.756592 396.806366,156.756592 392.767792,156.756592 
	C392.767792,152.667297 392.767792,148.579422 392.767792,143.993164 
z"/>
<path fill="#080E07" opacity="1.000000" stroke="none" 
	d="
M381.591919,129.919128 
	C381.626282,138.948517 381.626282,147.561615 381.626282,156.207062 
	C374.246613,155.613983 369.339172,150.591644 368.817719,143.621246 
	C368.295227,136.637787 372.947693,129.799713 379.253387,128.502060 
	C379.924377,128.363968 380.784973,129.147079 381.591919,129.919128 
z"/>
<path fill="#060B06" opacity="1.000000" stroke="none" 
	d="
M425.028076,134.147095 
	C430.550201,144.840805 426.069641,154.832031 415.184204,156.275269 
	C415.184204,147.020081 415.184204,137.800186 415.184204,126.764381 
	C419.024475,129.583847 421.921417,131.710724 425.028076,134.147095 
z"/>
<path fill="#010201" opacity="1.000000" stroke="none" 
	d="
M302.847900,191.000061 
	C302.847992,213.618378 302.847992,235.736679 302.847992,258.264496 
	C278.047577,258.511322 253.392670,261.746460 232.460419,244.831772 
	C216.516083,231.947662 207.310532,215.395386 207.039658,194.853577 
	C206.573883,159.528839 206.516251,124.190186 206.932816,88.864975 
	C207.290192,58.558155 232.767700,30.669210 263.143738,27.309586 
	C275.175903,25.978813 287.425598,26.652359 299.573181,26.305283 
	C303.325867,26.198065 302.847473,28.697342 302.847809,31.012272 
	C302.850250,49.510876 302.848206,68.009476 302.848083,86.508080 
	C302.847809,121.172066 302.847870,155.836060 302.847900,191.000061 
z"/>
<path fill="#050A05" opacity="1.000000" stroke="none" 
	d="
M566.776184,318.480225 
	C568.372559,313.157898 572.227966,313.258972 576.141479,313.864410 
	C580.049438,314.469025 581.040833,317.236389 580.896423,320.807098 
	C580.770264,323.929382 580.870178,327.060760 580.870178,330.627319 
	C576.159790,330.627319 571.814087,330.627319 566.715149,330.627319 
	C566.715149,326.726715 566.715149,322.827545 566.776184,318.480225 
z"/>
<path fill="#040703" opacity="1.000000" stroke="none" 
	d="
M23.250244,338.961487 
	C23.255606,332.491119 23.159399,326.512024 23.297771,320.538391 
	C23.412785,315.573090 25.796726,313.505859 30.920374,313.532227 
	C36.148403,313.559143 38.348339,315.504089 38.402939,320.598907 
	C38.502571,329.894989 38.505817,339.193817 38.398743,348.489746 
	C38.340981,353.504791 35.993149,355.562408 30.854134,355.557251 
	C25.852188,355.552246 23.466520,353.359131 23.284613,348.419556 
	C23.174702,345.435028 23.255259,342.443542 23.250244,338.961487 
z"/>
<path fill="#040703" opacity="1.000000" stroke="none" 
	d="
M362.776123,344.861084 
	C362.778625,336.574310 362.723938,328.767334 362.803894,320.961731 
	C362.858856,315.595795 365.130463,313.483337 370.463654,313.544281 
	C375.826294,313.605591 377.871338,315.638916 377.903656,321.170441 
	C377.954132,329.807007 377.935547,338.444153 377.912170,347.080933 
	C377.895294,353.330292 375.812897,355.596588 370.236053,355.541901 
	C364.907440,355.489655 362.911713,353.294037 362.782471,347.334534 
	C362.768066,346.670441 362.777802,346.005798 362.776123,344.861084 
z"/>
<path fill="#070D06" opacity="1.000000" stroke="none" 
	d="
M65.274124,339.572998 
	C64.271072,338.683960 63.205910,337.833252 63.189865,336.963196 
	C63.055340,329.667755 63.113338,322.368805 63.113338,315.188538 
	C72.659767,312.588593 75.937187,315.012085 75.947266,324.265198 
	C75.949081,325.930389 75.948616,327.595612 75.947472,329.260803 
	C75.941101,338.548065 74.926620,339.571472 65.274124,339.572998 
z"/>
<path fill="#080E07" opacity="1.000000" stroke="none" 
	d="
M465.157867,314.282043 
	C473.595398,314.471527 474.886353,315.754303 474.906586,323.545288 
	C474.911316,325.372559 474.908630,327.199860 474.907593,329.027130 
	C474.901978,338.910797 473.061096,340.489685 462.198883,339.118591 
	C462.198883,331.531586 462.141083,323.809723 462.308441,316.092743 
	C462.321869,315.474274 463.887360,314.889526 465.157867,314.282043 
z"/>
</svg>