<svg version="1.1" id="Layer_1" xmlns="http://www.w3.org/2000/svg" xmlns:xlink="http://www.w3.org/1999/xlink" x="0px" y="0px"
	 width="100%" viewBox="0 0 1035 304" enable-background="new 0 0 1035 304" xml:space="preserve">
<path fill="#0B1D35" opacity="1.000000" stroke="none" 
	d="
M974.000000,305.000000 
	C649.333374,305.000000 325.166779,305.000000 1.000131,305.000000 
	C1.000087,203.666748 1.000087,102.333488 1.000044,1.000171 
	C345.999878,1.000114 690.999756,1.000114 1035.999756,1.000057 
	C1035.999756,102.333183 1035.999756,203.666367 1035.999878,304.999756 
	C1015.500000,305.000000 995.000000,305.000000 974.000000,305.000000 
M769.089600,174.453140 
	C769.254150,174.163696 769.499207,173.983917 770.548950,173.888596 
	C774.646912,171.077042 775.815613,167.030716 775.417908,161.648895 
	C775.592041,160.761505 775.766174,159.874115 776.558105,158.830902 
	C777.232544,157.973801 777.906982,157.116714 778.415100,156.470993 
	C780.029541,161.100220 781.302917,166.044617 783.424683,170.593246 
	C789.842224,184.351028 802.464783,186.646072 816.283020,182.231827 
	C818.350952,181.571228 821.041565,181.723709 823.118958,182.441299 
	C829.402893,184.612000 832.920837,182.494476 832.950928,175.998215 
	C832.982422,169.192947 833.247009,162.368805 832.815796,155.590698 
	C832.631592,152.695694 830.941772,149.896484 830.389160,146.624146 
	C830.228943,145.722946 830.068726,144.821747 830.280029,143.346420 
	C831.013611,141.637955 832.731384,139.635864 832.323303,138.267990 
	C829.361938,128.342270 823.009705,121.033226 812.620300,119.395149 
	C801.152283,117.587021 791.998108,119.201614 785.835022,129.754486 
	C782.178162,136.015961 780.319031,143.327286 778.163391,148.854309 
	C777.907715,148.394821 776.961426,146.693985 775.776978,144.352997 
	C775.595947,143.231842 775.414917,142.110687 775.640259,140.424896 
	C775.095032,135.396698 773.961548,130.672424 768.949036,127.195587 
	C768.487610,126.510704 768.114746,125.740784 767.551453,125.153648 
	C757.840515,115.032478 735.728088,116.140724 727.387817,132.725739 
	C722.662109,142.123047 721.567566,152.086380 724.359680,162.260086 
	C725.364624,165.921646 724.504333,167.194229 720.762146,167.030853 
	C716.771667,166.856613 712.767761,166.996078 708.769836,166.980225 
	C702.469238,166.955246 702.022705,166.532288 702.005676,160.104523 
	C701.975769,148.776901 702.162231,137.444290 701.833069,126.126106 
	C701.776733,124.188194 699.962280,121.149055 698.339294,120.654083 
	C695.168823,119.687187 691.552917,119.962410 688.134460,120.085503 
	C684.321289,120.222801 682.878418,122.268829 682.928894,126.284409 
	C683.140381,143.106720 683.087402,159.933640 682.978760,176.757874 
	C682.949890,181.231567 684.790894,183.095917 689.248718,183.035492 
	C698.908813,182.904556 708.576965,182.808624 718.231567,183.072754 
	C722.957153,183.202042 725.478333,182.094391 725.118896,176.749481 
	C724.891785,173.371994 726.526733,171.985809 729.758667,174.427277 
	C730.344421,174.869751 731.330811,174.781998 732.647888,175.157990 
	C733.117310,175.730835 733.586792,176.303680 734.088257,177.589172 
	C739.516907,185.670593 758.740417,187.015549 765.049866,179.750793 
	C765.152710,179.632355 765.182800,179.450653 765.935242,179.101288 
	C766.940247,177.700623 767.945312,176.299957 769.089600,174.453140 
M857.855957,123.288338 
	C854.730835,118.323402 849.637207,119.892570 845.327637,119.987213 
	C841.129517,120.079399 839.030212,123.085548 839.043030,127.449295 
	C839.091187,143.882111 839.005554,160.315735 839.161072,176.747253 
	C839.178223,178.559265 839.926758,180.903580 841.194397,182.060913 
	C844.646790,185.213043 854.563904,183.766205 858.691895,179.885025 
	C860.440857,178.257584 862.189819,176.630142 863.971375,175.865189 
	C864.128235,182.566498 864.502625,182.973251 871.079224,182.988693 
	C882.061523,183.014481 893.049561,183.178741 904.021545,182.842041 
	C906.216248,182.774704 909.199890,181.261337 910.325439,179.473816 
	C912.328430,176.292908 913.598694,177.140152 916.236145,178.523392 
	C920.516113,180.768112 925.100952,183.217972 929.769409,183.763214 
	C938.145447,184.741455 946.737000,184.645706 954.093445,179.606171 
	C955.446960,182.581207 956.807190,182.537003 958.576050,179.826813 
	C959.794128,177.960541 961.206787,176.119919 962.883240,174.674606 
	C966.695007,171.388306 969.380859,168.244019 965.703552,162.976776 
	C964.560547,161.339569 965.015015,158.604492 964.673645,156.381958 
	C964.529419,155.442871 964.346680,154.471451 963.959290,153.615250 
	C962.868408,151.204346 961.662231,148.845642 960.595947,146.660034 
	C958.577942,145.401138 956.319031,143.999664 954.068359,142.585190 
	C952.670654,141.706726 951.285339,140.808502 950.314148,139.325150 
	C950.701843,139.017548 951.043457,138.559402 951.484009,138.424576 
	C960.154907,135.771240 960.592163,133.116730 954.791809,126.206757 
	C946.435364,116.251678 920.863464,115.897713 914.936401,128.474197 
	C914.338806,129.742355 913.351013,130.826660 912.475708,132.095764 
	C911.542480,130.961975 911.209106,130.739563 911.166748,130.471191 
	C911.037964,129.655869 910.995972,128.823730 910.965576,127.996475 
	C910.727173,121.492287 909.484741,120.135078 903.029175,120.081924 
	C892.227600,119.992981 881.424683,120.052689 870.622375,120.063591 
	C866.657104,120.067589 863.672424,121.214828 863.250977,125.889359 
	C861.504822,125.260063 859.758606,124.630768 857.855957,123.288338 
M635.050171,176.947128 
	C635.050171,176.947128 635.397888,176.609009 635.238770,177.326889 
	C637.435608,179.419800 639.275757,182.450272 641.890381,183.444977 
	C653.859009,187.998383 667.640564,182.892059 673.698181,171.730927 
	C675.944153,167.592697 677.589844,162.974350 678.617432,158.375671 
	C679.515198,154.358063 680.109192,149.821899 679.132568,145.944214 
	C677.746033,140.438812 674.909424,135.274750 672.491943,130.057755 
	C667.131592,118.490097 652.301941,116.771835 642.274414,120.346825 
	C626.902100,125.827301 623.243103,143.424301 624.221008,156.280487 
	C624.454712,159.353775 624.865906,162.718521 626.317139,165.324677 
	C628.649719,169.513809 628.873779,175.687088 635.050171,176.947128 
M563.817017,180.999496 
	C565.570007,180.638412 567.322998,180.277328 569.605347,180.433975 
	C572.103699,181.285873 574.575378,182.765228 577.105408,182.872971 
	C584.953186,183.207169 584.965637,183.004898 584.976135,175.373779 
	C584.983032,170.377609 584.855957,165.376633 585.053528,160.388275 
	C585.109924,158.965683 586.091919,157.579773 586.649475,156.177063 
	C587.658875,157.086731 588.947998,157.824112 589.631775,158.934311 
	C593.723572,165.578598 597.582092,172.367249 601.711121,178.987595 
	C604.093262,182.806946 613.264771,184.754379 616.892883,182.196777 
	C618.117188,181.333710 619.237061,179.615585 619.440796,178.153870 
	C619.915161,174.750717 619.901123,171.266235 619.912048,167.814148 
	C619.953857,154.551300 619.850586,141.287521 619.976318,128.025742 
	C620.011658,124.302658 619.326538,121.072060 615.250671,120.448219 
	C611.120728,119.816101 606.409851,118.545151 603.296204,124.025192 
	C598.002197,127.387413 595.476990,124.215302 593.618652,120.208000 
	C594.472351,117.623924 595.236145,115.311958 596.604919,112.857727 
	C596.957214,112.207314 597.309570,111.556892 597.661926,110.906479 
	C597.351685,110.777473 597.041382,110.648468 596.731140,110.519463 
	C596.487427,111.346306 596.243713,112.173157 595.120911,113.000000 
	C591.147400,113.872009 587.263733,111.799103 582.804382,114.191307 
	C580.303345,115.532928 573.537659,117.130959 571.056946,110.106537 
	C569.781738,106.495438 566.035889,107.690613 563.812805,110.462860 
	C561.498047,113.349464 559.282227,113.984749 557.140930,110.763382 
	C556.493469,112.651756 555.917114,114.332855 555.340759,116.013954 
	C554.951172,116.113770 554.561646,116.213593 554.172058,116.313416 
	C552.731079,112.320015 550.934204,109.874680 547.953735,114.407852 
	C547.061462,112.464928 546.343201,110.900787 545.624878,109.336662 
	C544.521973,110.487717 543.607178,112.113625 542.259766,112.647316 
	C541.071289,113.118080 539.285645,112.643593 537.968750,112.094604 
	C536.050415,111.294930 534.427490,109.555092 532.476868,109.119217 
	C529.600708,108.476540 526.430420,108.036415 523.598816,108.593956 
	C520.158325,109.271378 515.738037,109.116966 514.725403,114.212242 
	C514.576294,114.962708 512.677795,115.896721 511.685944,115.795242 
	C510.742035,115.698662 509.715149,114.488785 509.114746,113.525337 
	C508.565765,112.644394 508.538605,111.438240 508.269135,110.324348 
	C507.445831,110.406151 506.750824,110.267395 506.531372,110.528435 
	C503.612915,113.999725 501.203125,114.292915 497.555817,110.826660 
	C495.793152,109.151451 492.000458,106.613930 488.804718,110.317200 
	C488.328857,110.868652 486.946625,110.765305 485.987793,110.747299 
	C483.679596,110.703941 481.373840,110.531532 477.580994,110.333656 
	C474.402374,107.815063 474.053223,107.974762 471.612457,113.198921 
	C470.836548,114.859688 469.350739,116.188789 467.945557,117.981155 
	C467.131836,115.934219 466.621490,114.650497 466.119415,113.387489 
	C464.750305,113.850853 463.750427,114.189262 463.564026,114.252342 
	C462.372101,112.538307 461.480255,110.301613 460.736115,110.349709 
	C457.396729,110.565536 454.099335,111.431099 450.075531,112.197762 
	C448.699463,108.950272 446.176971,107.416100 441.054047,110.137718 
	C437.180176,112.195770 432.221741,113.340919 427.755981,110.285637 
	C427.596436,110.176460 427.164673,110.465134 426.584381,110.661667 
	C426.584381,111.807549 426.584381,113.036751 426.584381,115.712936 
	C419.388519,114.313789 412.755280,112.946617 406.084778,111.795464 
	C404.823151,111.577736 402.686707,111.770798 402.208893,112.546883 
	C400.799988,114.835464 400.020782,117.511726 398.331390,120.043411 
	C397.888824,120.040741 397.446228,120.038071 396.996765,119.251938 
	C395.826385,108.325401 387.003754,107.526825 378.737732,112.404274 
	C374.653656,114.814117 370.789185,115.446266 366.414978,114.590111 
	C360.868805,113.504570 355.373932,112.066978 349.784912,111.321129 
	C345.801971,110.789612 341.359802,115.845421 342.362183,119.371468 
	C343.754639,124.269485 343.345490,129.509308 346.563263,134.160904 
	C348.134155,136.431763 349.177765,137.451172 351.819244,138.204926 
	C357.954285,139.955536 367.050507,138.800629 365.531769,149.818405 
	C365.454224,150.380951 366.285583,151.049973 366.246155,151.639481 
	C365.895508,156.885757 368.571594,162.677612 363.099426,167.428345 
	C368.960175,172.568939 360.894104,176.294693 361.646729,181.652710 
	C366.803070,179.356033 368.964691,182.890411 370.643646,185.323822 
	C368.951263,187.361404 367.343567,188.982162 366.199066,190.881973 
	C365.887756,191.398727 367.187378,193.642731 367.384308,193.595016 
	C370.211517,192.909729 372.976501,191.967667 375.360687,191.212662 
	C378.460236,191.682663 381.496429,192.290451 384.562347,192.559418 
	C386.847992,192.759918 389.185120,192.660599 391.475708,192.444489 
	C394.306671,192.177444 397.586395,192.518127 398.816467,188.152420 
	C395.865570,186.401581 392.921021,184.654495 390.321899,182.237595 
	C390.860260,179.848969 391.816559,177.468430 391.863068,175.070267 
	C392.043701,165.761810 391.930389,156.447754 391.935516,147.135773 
	C391.940643,137.843292 391.945740,137.846710 400.880890,136.880325 
	C401.538391,136.809219 402.212097,136.716354 402.832458,136.501343 
	C407.066101,135.034134 408.102600,136.989304 407.969574,140.881714 
	C407.776581,146.528809 407.938263,152.187500 407.916748,157.841125 
	C407.890991,164.611038 407.851379,171.381042 407.779266,178.150589 
	C407.736542,182.162735 409.981384,183.100266 413.565887,183.046524 
	C422.376343,182.914429 431.190643,183.038284 439.782135,183.739120 
	C437.187164,185.330902 434.264069,187.328888 436.651306,190.509903 
	C437.805237,192.047516 441.018524,192.403763 443.358612,192.604492 
	C447.172150,192.931610 451.034210,192.692795 454.376526,192.692795 
	C457.279419,190.776779 460.217316,188.837631 462.725464,187.182175 
	C465.029510,189.606461 466.677338,191.340271 468.325134,193.074081 
	C468.695221,192.732986 469.065308,192.391907 469.435394,192.050812 
	C469.061462,190.305893 468.687531,188.560974 468.313629,186.816055 
	C472.604797,191.847488 477.380890,192.658905 483.189575,190.888153 
	C485.746490,190.108688 488.607819,190.327805 492.515472,189.991653 
	C492.187714,188.689133 491.585175,186.294830 491.530151,183.453232 
	C494.678192,181.947067 497.826233,180.440887 501.110168,179.652298 
	C502.355530,180.283676 503.708588,181.591171 504.825073,181.413361 
	C507.617798,180.968613 510.303162,179.850159 513.343445,179.654709 
	C515.873535,185.066406 521.091248,183.102661 525.132874,183.507324 
	C529.401855,183.934769 531.179382,181.257675 531.207642,176.596924 
	C531.247070,170.086197 532.362000,163.582016 533.896606,156.837723 
	C536.926453,156.910294 539.956360,156.982849 543.188782,157.787964 
	C543.805603,159.770004 544.825439,161.725906 544.955994,163.739471 
	C545.234375,168.032227 544.813721,172.374329 545.163879,176.656601 
	C545.324585,178.621216 546.166565,180.962936 547.523438,182.293503 
	C549.465576,184.197922 560.512573,182.901657 563.817017,180.999496 
M276.420166,153.610672 
	C275.314789,152.747559 274.209412,151.884460 274.002258,151.722687 
	C276.539825,147.269165 279.790619,143.721268 280.613953,139.678940 
	C282.442230,130.702881 275.351196,122.934624 265.114838,122.391335 
	C255.828827,121.898476 246.493484,122.083389 237.193192,122.382683 
	C235.802155,122.427437 233.326538,124.716461 233.306915,125.997200 
	C233.044632,143.120193 233.068054,160.249207 233.261566,177.374008 
	C233.275360,178.593079 235.161850,180.827789 236.196106,180.838745 
	C246.991669,180.952957 257.811737,181.062531 268.581573,180.431519 
	C275.074951,180.051041 279.732605,175.882355 281.749847,169.742706 
	C283.733063,163.706650 282.039520,158.269180 276.420166,153.610672 
M169.169922,144.820602 
	C166.141556,131.336945 157.899536,123.523651 144.653748,122.388138 
	C138.037170,121.820930 131.336670,122.250816 124.674530,122.188309 
	C121.797333,122.161316 121.000687,123.747879 121.006927,126.336479 
	C121.047531,143.163589 121.081665,159.991150 120.981918,176.817764 
	C120.961769,180.217453 122.520218,181.113708 125.570381,181.057724 
	C131.732651,180.944580 137.940369,181.463776 144.048401,180.878036 
	C148.227585,180.477280 152.752853,179.448608 156.285416,177.313919 
	C168.232559,170.094360 170.745575,158.584900 169.169922,144.820602 
M109.674454,167.498520 
	C109.893875,154.353180 109.937317,141.201309 110.426483,128.066010 
	C110.601891,123.356033 108.965782,122.144081 104.447899,122.040138 
	C99.495544,121.926201 98.098312,123.631935 98.216866,128.399872 
	C98.490089,139.388702 98.442558,150.393784 98.184166,161.384262 
	C98.041542,167.450394 95.337387,170.242065 90.029419,171.000763 
	C83.031624,172.001007 78.408546,168.152252 78.324554,160.953430 
	C78.192375,149.625229 78.256233,138.294815 78.221497,126.965385 
	C78.214912,124.815529 78.588806,122.336937 75.302513,122.256172 
	C72.305542,122.182518 69.261627,121.936394 66.328743,122.373077 
	C65.170952,122.545464 63.369434,124.358063 63.367512,125.426506 
	C63.342682,139.243423 63.163544,153.084671 63.934788,166.868790 
	C64.368179,174.614563 69.539574,180.035629 77.184647,181.134125 
	C83.643692,182.062210 90.472176,181.847565 96.943817,180.865143 
	C103.663147,179.845108 108.217110,175.403091 109.674454,167.498520 
M174.596619,156.147766 
	C176.340744,161.298386 177.324631,166.882736 179.969971,171.519180 
	C188.273315,186.072418 211.109573,186.248398 219.605774,171.845154 
	C227.536942,158.399796 227.321548,144.510010 219.245758,131.182312 
	C212.112228,119.409615 193.978928,117.404205 183.891495,126.890984 
	C175.666595,134.626144 173.976669,144.572311 174.596619,156.147766 
M320.160492,173.500885 
	C322.558777,181.776321 322.558777,181.776306 331.395172,181.740204 
	C331.728058,181.738846 332.060944,181.739639 332.393829,181.737213 
	C338.738373,181.691055 339.223572,181.146545 337.392059,175.140793 
	C333.077637,160.993576 328.748627,146.849731 324.268829,132.754318 
	C320.080658,119.576370 323.151581,121.757164 308.841187,121.455658 
	C304.908600,121.372803 302.733917,122.736259 301.544556,126.581017 
	C296.829651,141.822342 292.050751,157.047409 287.003418,172.181076 
	C283.725067,182.010681 284.154327,182.063187 295.020599,181.639771 
	C299.102112,181.480743 298.845978,177.705688 300.180145,175.190964 
	C301.235748,173.201340 302.553680,170.207169 304.185181,169.893097 
	C308.197235,169.120743 312.476532,169.414719 316.605377,169.774078 
	C317.787567,169.876968 318.822815,171.668304 320.160492,173.500885 
z"/>
<path fill="#0A1C33" opacity="1.000000" stroke="none" 
	d="
M513.031616,179.002014 
	C510.303162,179.850159 507.617798,180.968613 504.825073,181.413361 
	C503.708588,181.591171 502.355530,180.283676 501.201355,179.008682 
	C502.860870,176.243179 504.429199,174.121292 506.339172,171.984863 
	C507.090485,170.963989 507.500153,169.957626 507.922211,168.566650 
	C508.042358,167.360626 508.039459,166.505859 508.275513,165.723129 
	C509.977692,160.078949 508.664154,158.315536 502.838409,158.029648 
	C496.821808,157.734390 490.766327,157.111923 488.998444,165.069550 
	C488.964355,165.223007 488.833252,165.355362 488.745453,165.496338 
	C486.968597,168.349945 484.144196,170.194153 481.239594,168.611038 
	C478.973694,167.376007 476.462402,164.487732 476.195526,162.095901 
	C475.488922,155.762421 475.738312,149.291580 475.994476,142.890884 
	C476.207611,137.565887 478.784729,134.862686 482.961853,134.996567 
	C487.663483,135.147247 488.559143,138.243362 489.329712,142.300735 
	C489.721985,144.366180 492.533081,147.089432 494.621857,147.468018 
	C498.250854,148.125763 502.192383,147.378647 505.955780,146.871277 
	C508.839294,146.482513 510.406158,144.704941 509.509033,141.572037 
	C508.695251,138.730194 507.812744,135.908020 506.959961,132.695221 
	C506.684021,130.118149 506.408722,127.923035 506.103729,125.491203 
	C505.118103,125.653191 504.039062,125.830528 502.712402,125.778191 
	C500.600159,124.471466 498.689484,123.466171 496.878967,122.304779 
	C489.572083,117.617592 481.542755,117.737831 473.918213,120.274963 
	C461.988220,124.244766 453.982697,136.574371 454.202026,150.347641 
	C454.305939,156.873352 456.053955,163.372879 457.086975,170.246460 
	C458.448761,172.054657 459.780609,173.500656 461.397095,175.117554 
	C467.894592,181.419235 474.911255,185.395401 484.091187,184.041458 
	C486.346191,183.708878 488.683289,183.932587 490.982635,183.900543 
	C491.585175,186.294830 492.187714,188.689133 492.515472,189.991653 
	C488.607819,190.327805 485.746490,190.108688 483.189575,190.888153 
	C477.380890,192.658905 472.604797,191.847488 468.313629,186.816055 
	C468.687531,188.560974 469.061462,190.305893 469.435394,192.050812 
	C469.065308,192.391907 468.695221,192.732986 468.325134,193.074081 
	C466.677338,191.340271 465.029510,189.606461 462.725464,187.182175 
	C460.217316,188.837631 457.279419,190.776779 454.376526,192.692795 
	C451.034210,192.692795 447.172150,192.931610 443.358612,192.604492 
	C441.018524,192.403763 437.805237,192.047516 436.651306,190.509903 
	C434.264069,187.328888 437.187164,185.330902 440.320618,183.380859 
	C442.572662,183.030762 444.286194,183.038910 446.059814,183.390396 
	C447.499451,185.251190 448.878998,186.768661 450.258545,188.286133 
	C450.721069,188.044983 451.183563,187.803833 451.646088,187.562683 
	C451.762421,186.026657 451.878754,184.490646 452.244873,182.674164 
	C452.926941,178.685776 453.764862,174.959106 453.594666,171.279083 
	C453.525208,169.778030 451.269958,168.378098 450.066956,166.574219 
	C450.658600,164.067627 451.192505,161.918961 451.726410,159.770309 
	C451.091888,159.622437 450.457397,159.474548 449.822906,159.326675 
	C449.213196,161.853149 448.603455,164.379608 447.525909,166.924179 
	C441.916748,166.953552 436.775391,166.957031 431.634094,166.979538 
	C429.236542,166.990036 426.926880,167.172745 426.902008,163.592484 
	C426.878479,160.199875 428.844971,159.903259 431.432587,159.952866 
	C435.079926,160.022781 438.782837,160.331573 442.357117,159.814011 
	C444.281189,159.535385 447.465698,157.816147 447.521698,156.626389 
	C447.712616,152.570160 446.766907,148.460434 446.255035,144.371124 
	C445.511414,144.532394 444.767761,144.693634 443.566711,144.967621 
	C437.751343,144.971558 432.393402,144.862778 427.031555,144.321274 
	C426.845001,136.962753 426.848053,137.085312 433.609283,136.917130 
	C440.061127,136.756653 446.505707,136.304001 453.271973,135.975647 
	C454.178986,135.617767 454.767456,135.264038 455.355957,134.910309 
	C454.872925,134.598938 454.389862,134.287567 453.911987,133.646606 
	C453.932159,132.877838 453.947205,132.438629 454.292206,131.912689 
	C456.631287,130.163376 456.400085,128.889954 453.949402,127.582428 
	C454.032623,123.676437 453.975128,120.049217 449.186005,120.120842 
	C435.470001,120.325981 421.757202,120.741653 407.858307,120.772240 
	C405.761353,120.330269 403.849243,120.190598 401.569397,120.054260 
	C400.466187,120.050484 399.730652,120.043365 398.995117,120.036255 
	C400.020782,117.511726 400.799988,114.835464 402.208893,112.546883 
	C402.686707,111.770798 404.823151,111.577736 406.084778,111.795464 
	C412.755280,112.946617 419.388519,114.313789 426.584381,115.712936 
	C426.584381,113.036751 426.584381,111.807549 426.584381,110.661667 
	C427.164673,110.465134 427.596436,110.176460 427.755981,110.285637 
	C432.221741,113.340919 437.180176,112.195770 441.054047,110.137718 
	C446.176971,107.416100 448.699463,108.950272 450.075531,112.197762 
	C454.099335,111.431099 457.396729,110.565536 460.736115,110.349709 
	C461.480255,110.301613 462.372101,112.538307 463.564026,114.252342 
	C463.750427,114.189262 464.750305,113.850853 466.119415,113.387489 
	C466.621490,114.650497 467.131836,115.934219 467.945557,117.981155 
	C469.350739,116.188789 470.836548,114.859688 471.612457,113.198921 
	C474.053223,107.974762 474.402374,107.815063 477.580994,110.333656 
	C481.373840,110.531532 483.679596,110.703941 485.987793,110.747299 
	C486.946625,110.765305 488.328857,110.868652 488.804718,110.317200 
	C492.000458,106.613930 495.793152,109.151451 497.555817,110.826660 
	C501.203125,114.292915 503.612915,113.999725 506.531372,110.528435 
	C506.750824,110.267395 507.445831,110.406151 508.269135,110.324348 
	C508.538605,111.438240 508.565765,112.644394 509.114746,113.525337 
	C509.715149,114.488785 510.742035,115.698662 511.685944,115.795242 
	C512.677795,115.896721 514.576294,114.962708 514.725403,114.212242 
	C515.738037,109.116966 520.158325,109.271378 523.598816,108.593956 
	C526.430420,108.036415 529.600708,108.476540 532.476868,109.119217 
	C534.427490,109.555092 536.050415,111.294930 537.968750,112.094604 
	C539.285645,112.643593 541.071289,113.118080 542.259766,112.647316 
	C543.607178,112.113625 544.521973,110.487717 545.624878,109.336655 
	C546.343201,110.900787 547.061462,112.464928 547.953735,114.407852 
	C550.934204,109.874680 552.731079,112.320015 554.172058,116.313416 
	C554.561646,116.213593 554.951172,116.113770 555.340759,116.013954 
	C555.917114,114.332855 556.493469,112.651756 557.140930,110.763382 
	C559.282227,113.984749 561.498047,113.349464 563.812805,110.462860 
	C566.035889,107.690613 569.781738,106.495438 571.056946,110.106537 
	C573.537659,117.130959 580.303345,115.532928 582.804382,114.191307 
	C587.263733,111.799103 591.147400,113.872009 595.560425,113.000000 
	C595.236145,115.311958 594.472351,117.623924 593.618652,120.208000 
	C595.476990,124.215302 598.002197,127.387413 603.667725,124.465782 
	C604.033447,127.937866 604.027649,130.969360 603.708923,134.073486 
	C603.604675,135.097122 603.813416,136.048157 604.016113,137.373016 
	C603.519470,139.376785 603.028809,141.006683 602.224365,143.678848 
	C599.387817,139.102280 596.545593,135.856003 595.192627,132.076569 
	C591.490784,121.736130 584.398804,118.188919 573.903442,119.714340 
	C570.767029,118.009010 567.730225,116.657303 564.693420,115.305588 
	C564.774536,115.708313 564.855591,116.111038 564.936707,116.513763 
	C562.585083,117.363647 560.233521,118.213531 557.492432,119.145454 
	C554.087830,119.521988 551.072815,119.816475 547.808350,119.824783 
	C543.322754,116.387344 539.827454,118.518440 535.530762,121.481186 
	C537.299561,124.137978 539.122375,126.595955 540.620911,129.237839 
	C541.443176,130.687347 542.610413,133.442703 542.095154,133.904144 
	C538.906128,136.759888 541.046265,139.308517 541.546387,141.989029 
	C539.324768,142.005768 537.433838,142.399475 535.818909,141.900375 
	C534.350037,141.446442 533.181030,140.022263 532.245361,139.002197 
	C533.296692,138.478714 533.982483,137.978821 534.668335,137.478912 
	C533.494202,136.983032 532.320007,136.487152 531.120667,135.526917 
	C531.041687,130.406357 530.987915,125.750168 531.068115,120.801743 
	C531.044434,119.555534 530.886780,118.601570 530.729065,117.647621 
	C530.132141,118.142769 529.535217,118.637917 528.492676,119.123795 
	C526.715332,119.099976 525.382690,119.047554 524.051819,119.076935 
	C514.683533,119.283714 513.041748,120.940392 513.037415,130.203232 
	C513.029846,146.469498 513.033020,162.735748 513.031616,179.002014 
M474.672607,114.566811 
	C474.914062,114.272995 475.155487,113.979187 475.396942,113.685387 
	C474.993225,113.547066 474.589478,113.408752 474.185730,113.270424 
	C474.204590,113.645973 474.223450,114.021523 474.672607,114.566811 
z"/>
<path fill="#E7EBED" opacity="1.000000" stroke="none" 
	d="
M276.742554,153.835022 
	C282.039520,158.269180 283.733063,163.706650 281.749847,169.742706 
	C279.732605,175.882355 275.074951,180.051041 268.581573,180.431519 
	C257.811737,181.062531 246.991669,180.952957 236.196106,180.838745 
	C235.161850,180.827789 233.275360,178.593079 233.261566,177.374008 
	C233.068054,160.249207 233.044632,143.120193 233.306915,125.997200 
	C233.326538,124.716461 235.802155,122.427437 237.193192,122.382683 
	C246.493484,122.083389 255.828827,121.898476 265.114838,122.391335 
	C275.351196,122.934624 282.442230,130.702881 280.613953,139.678940 
	C279.790619,143.721268 276.539825,147.269165 274.002258,151.722687 
	C274.209412,151.884460 275.314789,152.747559 276.742554,153.835022 
M264.087372,168.812576 
	C265.115967,166.429321 267.388824,163.688156 266.834259,161.760284 
	C266.242432,159.702881 263.137543,158.110641 260.822205,156.906723 
	C259.505585,156.222122 257.573547,156.691681 255.918671,156.691742 
	C246.711151,156.692001 246.062927,157.335693 247.409698,166.627487 
	C247.597351,167.922180 249.440720,169.938110 250.558868,169.965973 
	C254.806656,170.071854 259.071381,169.498474 264.087372,168.812576 
M251.032990,133.393005 
	C249.796967,134.209808 247.778778,134.792236 247.452332,135.881607 
	C245.396683,142.741486 247.428680,145.274597 254.555054,145.268204 
	C256.382721,145.266556 258.211700,145.233475 260.037628,145.156616 
	C263.779907,144.999115 266.028290,143.069763 266.085632,139.294357 
	C266.141144,135.640671 263.608063,133.931458 260.378754,133.529861 
	C257.594086,133.183563 254.738785,133.405106 251.032990,133.393005 
z"/>
<path fill="#E7EAED" opacity="1.000000" stroke="none" 
	d="
M169.219543,145.228882 
	C170.745575,158.584900 168.232559,170.094360 156.285416,177.313919 
	C152.752853,179.448608 148.227585,180.477280 144.048401,180.878036 
	C137.940369,181.463776 131.732651,180.944580 125.570381,181.057724 
	C122.520218,181.113708 120.961769,180.217453 120.981918,176.817764 
	C121.081665,159.991150 121.047531,143.163589 121.006927,126.336479 
	C121.000687,123.747879 121.797333,122.161316 124.674530,122.188309 
	C131.336670,122.250816 138.037170,121.820930 144.653748,122.388138 
	C157.899536,123.523651 166.141556,131.336945 169.219543,145.228882 
M154.880722,154.069946 
	C154.479446,150.458420 154.600998,146.688873 153.567215,143.268509 
	C151.464020,136.309875 145.813461,132.991165 138.637985,133.468750 
	C135.896896,133.651184 134.824066,134.744568 134.848572,137.476669 
	C134.933716,146.971161 134.948364,156.467484 134.853333,165.961731 
	C134.823166,168.976532 136.104187,170.034103 139.016724,170.166031 
	C147.657852,170.557434 152.749664,165.723923 154.880722,154.069946 
z"/>
<path fill="#E8EBED" opacity="1.000000" stroke="none" 
	d="
M109.569733,167.896561 
	C108.217110,175.403091 103.663147,179.845108 96.943817,180.865143 
	C90.472176,181.847565 83.643692,182.062210 77.184647,181.134125 
	C69.539574,180.035629 64.368179,174.614563 63.934788,166.868790 
	C63.163544,153.084671 63.342682,139.243423 63.367512,125.426506 
	C63.369434,124.358063 65.170952,122.545464 66.328743,122.373077 
	C69.261627,121.936394 72.305542,122.182518 75.302513,122.256172 
	C78.588806,122.336937 78.214912,124.815529 78.221497,126.965385 
	C78.256233,138.294815 78.192375,149.625229 78.324554,160.953430 
	C78.408546,168.152252 83.031624,172.001007 90.029419,171.000763 
	C95.337387,170.242065 98.041542,167.450394 98.184166,161.384262 
	C98.442558,150.393784 98.490089,139.388702 98.216866,128.399872 
	C98.098312,123.631935 99.495544,121.926201 104.447899,122.040138 
	C108.965782,122.144081 110.601891,123.356033 110.426483,128.066010 
	C109.937317,141.201309 109.893875,154.353180 109.569733,167.896561 
z"/>
<path fill="#EAEDEF" opacity="1.000000" stroke="none" 
	d="
M174.551758,155.689362 
	C173.976669,144.572311 175.666595,134.626144 183.891495,126.890984 
	C193.978928,117.404205 212.112228,119.409615 219.245758,131.182312 
	C227.321548,144.510010 227.536942,158.399796 219.605774,171.845154 
	C211.109573,186.248398 188.273315,186.072418 179.969971,171.519180 
	C177.324631,166.882736 176.340744,161.298386 174.551758,155.689362 
M209.736069,159.189377 
	C209.753998,158.789062 209.771912,158.388733 210.318054,157.369141 
	C210.126282,153.253662 209.934509,149.138168 209.759293,144.417343 
	C209.707886,144.017517 209.656479,143.617676 209.906586,142.497620 
	C207.922867,134.841034 204.828140,131.608185 199.583847,131.714157 
	C194.338531,131.820175 190.327896,135.509506 189.596924,142.794342 
	C188.944138,149.300049 189.158417,156.031952 190.059570,162.515366 
	C190.967209,169.045425 195.671570,172.420151 200.955139,171.795914 
	C206.007111,171.199051 209.658905,166.132187 209.736069,159.189377 
z"/>
<path fill="#ECEEF0" opacity="1.000000" stroke="none" 
	d="
M542.986206,157.055405 
	C539.956360,156.982849 536.926453,156.910294 533.062866,156.793777 
	C531.217407,158.084625 529.459900,159.352646 529.333252,160.766678 
	C528.948547,165.063202 529.186523,169.416183 529.195801,173.747147 
	C529.210754,180.737839 529.215454,180.737747 522.038208,180.757614 
	C521.205322,180.759918 520.146057,181.090729 519.584351,180.701920 
	C518.199585,179.743378 515.972290,178.469421 515.956177,177.296600 
	C515.723328,160.309174 515.757751,143.317215 515.889465,126.327576 
	C515.898804,125.123383 516.884827,123.269424 517.895691,122.836723 
	C524.598328,119.967590 529.163879,123.151138 529.175842,130.452774 
	C529.176392,130.785934 529.169983,131.119247 529.178040,131.452209 
	C529.549561,146.719437 526.400940,144.199997 542.970398,144.515488 
	C546.349548,144.579819 547.919006,143.275330 547.782715,139.831711 
	C547.664246,136.837875 547.747070,133.835907 547.749023,130.837524 
	C547.754639,122.240372 547.754639,122.382378 556.218933,122.482010 
	C559.863770,122.524902 561.202209,123.800041 561.171509,127.488312 
	C561.036682,143.645126 561.016785,159.804733 561.184509,175.960938 
	C561.224243,179.788635 559.716187,181.072189 556.178345,180.785202 
	C554.854248,180.677795 553.505371,180.662170 552.183716,180.781387 
	C548.970032,181.071213 547.644653,179.719696 547.736145,176.463730 
	C547.881165,171.304062 547.685974,166.135437 547.793396,160.973907 
	C547.866760,157.450165 546.591003,155.907501 542.986206,157.055405 
z"/>
<path fill="#2B3849" opacity="1.000000" stroke="none" 
	d="
M863.934448,125.999878 
	C863.672424,121.214828 866.657104,120.067589 870.622375,120.063591 
	C881.424683,120.052689 892.227600,119.992981 903.029175,120.081924 
	C909.484741,120.135078 910.727173,121.492287 910.965576,127.996475 
	C910.995972,128.823730 911.037964,129.655869 911.166748,130.471191 
	C911.209106,130.739563 911.542480,130.961975 912.475708,132.095764 
	C913.351013,130.826660 914.338806,129.742355 914.936401,128.474197 
	C920.863464,115.897713 946.435364,116.251678 954.791809,126.206757 
	C960.592163,133.116730 960.154907,135.771240 951.484009,138.424576 
	C951.043457,138.559402 950.701843,139.017548 949.704468,139.634949 
	C946.832825,139.214401 944.563049,138.506866 942.310730,137.747742 
	C939.614258,136.838882 936.986145,135.560699 934.219360,135.104889 
	C933.036560,134.910019 931.577881,136.389801 930.244568,137.108643 
	C931.326904,138.377090 932.174072,140.300385 933.536255,140.789413 
	C937.398010,142.175827 941.457092,143.030701 945.462402,143.995789 
	C955.682190,146.458298 963.091187,156.203705 960.741516,165.887283 
	C959.622070,170.500687 956.287170,174.576523 953.955811,178.895874 
	C946.737000,184.645706 938.145447,184.741455 929.769409,183.763214 
	C925.100952,183.217972 920.516113,180.768112 916.236145,178.523392 
	C913.598694,177.140152 912.328430,176.292908 910.325439,179.473816 
	C909.199890,181.261337 906.216248,182.774704 904.021545,182.842041 
	C893.049561,183.178741 882.061523,183.014481 871.079224,182.988693 
	C864.502625,182.973251 864.128235,182.566498 863.973877,174.964981 
	C863.962402,158.043137 863.948425,142.021515 863.934448,125.999878 
M882.300049,144.962997 
	C881.676819,142.310089 880.576294,139.632614 880.710876,137.018723 
	C880.753174,136.196838 884.087097,134.999908 885.956238,134.916931 
	C891.942627,134.651154 897.952515,134.693863 903.945740,134.872833 
	C909.036865,135.024857 908.292847,131.552063 908.392822,128.411987 
	C908.495850,125.178085 908.442505,122.424049 903.897827,122.485184 
	C892.736206,122.635307 881.570740,122.584648 870.407776,122.491722 
	C867.259460,122.465523 865.924561,123.571472 865.946655,126.867973 
	C866.057190,143.362900 866.070923,159.859268 865.967102,176.354172 
	C865.946899,179.569458 867.044067,180.842438 870.283447,180.812119 
	C881.446167,180.707657 892.612915,180.621536 903.772644,180.827393 
	C908.278687,180.910538 908.446655,178.394714 908.404236,175.075821 
	C908.361572,171.743256 908.631531,168.671844 903.705811,168.864410 
	C897.383911,169.111557 891.043823,168.852142 884.713806,168.952393 
	C881.514587,169.003052 880.311157,167.640518 880.244751,164.464462 
	C880.117249,158.372787 880.453674,157.866348 886.465698,157.824203 
	C888.964966,157.806686 891.464355,157.812439 893.963684,157.806381 
	C902.419861,157.785919 903.752014,156.159454 902.088379,147.751907 
	C901.898987,146.794891 901.374756,145.904160 901.504761,144.478271 
	C906.673401,147.182373 903.222229,151.868195 903.859131,155.578949 
	C904.069824,156.806458 902.484131,158.551910 901.356506,159.705612 
	C900.841003,160.233078 899.446289,159.943314 898.449768,159.950912 
	C895.116760,159.976318 891.782959,159.934830 888.450439,159.984512 
	C885.878967,160.022842 882.875671,159.257126 882.938293,163.621490 
	C882.996948,167.708237 885.851624,166.724319 888.208618,167.001068 
	C898.776489,168.241852 908.754028,166.305237 918.059204,161.255722 
	C921.604370,159.331924 923.802734,160.018036 925.919556,163.344391 
	C928.236633,166.985519 931.442444,169.975372 936.166260,168.851059 
	C938.241455,168.357147 939.953491,166.337662 941.830383,165.010849 
	C940.128723,163.681320 938.616455,161.848114 936.687561,161.122711 
	C932.072937,159.387207 927.192749,158.367340 922.546570,156.704193 
	C915.176208,154.065918 911.549927,148.524597 911.057312,140.806580 
	C910.965393,139.366928 910.790222,137.932617 910.697144,136.954376 
	C903.731812,136.954376 897.274536,136.956131 890.817261,136.953903 
	C882.839539,136.951172 882.839539,136.949753 882.300049,144.962997 
M947.099609,179.886398 
	C958.954163,173.422852 962.507629,160.499588 954.029724,151.744827 
	C950.701416,148.307846 945.237061,146.801804 940.563416,144.852890 
	C937.369385,143.520935 933.706909,143.286880 930.559814,141.878479 
	C929.097473,141.224014 927.373962,138.818649 927.549622,137.432724 
	C927.766418,135.722626 929.780212,132.975876 931.117859,132.915924 
	C934.730896,132.753937 939.362122,132.599854 941.816162,134.608765 
	C945.496216,137.621140 948.336426,137.119171 952.215271,136.088821 
	C956.765625,134.880112 956.482239,132.857529 954.353821,129.728806 
	C947.816101,120.118454 927.980042,117.891136 919.874695,126.414444 
	C916.984497,129.453552 914.610291,133.915466 914.015076,138.020065 
	C912.567871,148.000061 917.775269,153.930435 929.039490,156.961472 
	C932.882141,157.995468 936.843506,158.795914 940.459534,160.371170 
	C942.081116,161.077591 944.084839,163.534851 943.941406,165.005066 
	C943.758911,166.876221 941.938171,169.187729 940.184082,170.190262 
	C935.380676,172.935562 928.388489,171.290375 925.043884,166.466614 
	C922.898315,163.372147 920.663635,162.768768 917.465210,163.946991 
	C915.342529,164.728943 913.221802,165.516403 910.912231,166.370972 
	C912.946228,173.685867 917.218323,178.248215 923.801208,180.448135 
	C931.304138,182.955490 938.877625,182.712585 947.099609,179.886398 
z"/>
<path fill="#0A1C33" opacity="1.000000" stroke="none" 
	d="
M389.976440,182.907425 
	C392.921021,184.654495 395.865570,186.401581 398.816467,188.152420 
	C397.586395,192.518127 394.306671,192.177444 391.475708,192.444489 
	C389.185120,192.660599 386.847992,192.759918 384.562347,192.559418 
	C381.496429,192.290451 378.460236,191.682663 375.360687,191.212662 
	C372.976501,191.967667 370.211517,192.909729 367.384308,193.595016 
	C367.187378,193.642731 365.887756,191.398727 366.199066,190.881973 
	C367.343567,188.982162 368.951263,187.361404 370.643646,185.323822 
	C368.964691,182.890411 366.803070,179.356033 361.646729,181.652710 
	C360.894104,176.294693 368.960175,172.568939 363.099426,167.428345 
	C368.571594,162.677612 365.895508,156.885757 366.246155,151.639481 
	C366.285583,151.049973 365.454224,150.380951 365.531769,149.818405 
	C367.050507,138.800629 357.954285,139.955536 351.819244,138.204926 
	C349.177765,137.451172 348.134155,136.431763 346.563263,134.160904 
	C343.345490,129.509308 343.754639,124.269485 342.362183,119.371468 
	C341.359802,115.845421 345.801971,110.789612 349.784912,111.321129 
	C355.373932,112.066978 360.868805,113.504570 366.414978,114.590111 
	C370.789185,115.446266 374.653656,114.814117 378.737732,112.404274 
	C387.003754,107.526825 395.826385,108.325401 396.531158,119.647537 
	C384.720093,120.064575 373.374603,120.086014 361.948914,119.778610 
	C360.259003,119.675850 358.649353,119.901939 357.039703,120.128036 
	C357.402649,120.772438 357.765594,121.416840 358.118835,122.516167 
	C358.094971,123.799927 358.071838,124.628731 358.068085,125.457611 
	C358.019104,136.289383 358.014282,136.425751 369.072601,136.874863 
	C372.596680,137.018005 373.108704,138.692322 373.089386,141.585327 
	C373.013000,153.024811 373.012604,164.465439 373.085754,175.904984 
	C373.123444,181.801392 374.322052,182.946030 380.030334,182.983292 
	C383.345398,183.004944 386.661041,182.935730 389.976440,182.907425 
M351.497437,132.626205 
	C354.092285,133.557724 354.092285,133.557724 354.084045,130.116241 
	C353.139984,130.878311 352.422913,131.457138 351.497437,132.626205 
M353.850128,117.525261 
	C353.908417,117.832710 353.966705,118.140160 354.024994,118.447601 
	C354.095001,118.142586 354.165009,117.837570 353.850128,117.525261 
z"/>
<path fill="#2B3849" opacity="1.000000" stroke="none" 
	d="
M390.149170,182.572510 
	C386.661041,182.935730 383.345398,183.004944 380.030334,182.983292 
	C374.322052,182.946030 373.123444,181.801392 373.085754,175.904984 
	C373.012604,164.465439 373.013000,153.024811 373.089386,141.585327 
	C373.108704,138.692322 372.596680,137.018005 369.072601,136.874863 
	C358.014282,136.425751 358.019104,136.289383 358.068085,125.457611 
	C358.071838,124.628731 358.094971,123.799927 358.430359,122.465103 
	C359.844086,121.341896 360.936615,120.724670 362.029144,120.107452 
	C373.374603,120.086014 384.720093,120.064575 396.534607,120.039268 
	C397.446228,120.038071 397.888824,120.040741 398.663269,120.039825 
	C399.730652,120.043365 400.466187,120.050484 401.822388,120.271057 
	C404.373291,120.077744 405.772369,124.712837 408.043121,121.074547 
	C421.757202,120.741653 435.470001,120.325981 449.186005,120.120842 
	C453.975128,120.049217 454.032623,123.676437 453.946045,127.982361 
	C453.954773,129.866806 453.958496,130.933105 453.962250,131.999420 
	C453.947205,132.438629 453.932159,132.877838 453.710358,133.846863 
	C453.320221,134.911041 453.136841,135.445419 452.953461,135.979782 
	C446.505707,136.304001 440.061127,136.756653 433.609283,136.917130 
	C426.848053,137.085312 426.845001,136.962753 426.633606,144.480011 
	C421.754974,143.734848 424.123749,140.079269 424.081879,137.534180 
	C424.067535,136.660706 426.845551,135.045715 428.409393,134.965240 
	C434.390717,134.657425 440.407471,134.616760 446.390839,134.901123 
	C451.408081,135.139557 451.493652,132.185226 451.564789,128.526794 
	C451.634949,124.918251 451.281281,122.319786 446.667694,122.389084 
	C435.842194,122.551689 425.012634,122.527084 414.185577,122.451530 
	C410.736877,122.427475 409.526642,123.893829 409.546661,127.275826 
	C409.643219,143.600418 409.656219,159.926483 409.528015,176.250687 
	C409.499847,179.833420 411.012939,180.866562 414.317810,180.833130 
	C425.144714,180.723618 435.975769,180.641937 446.800079,180.837097 
	C451.686066,180.925186 451.445465,177.964523 451.519867,174.608505 
	C451.595123,171.213181 451.272797,168.714615 446.872742,168.854050 
	C440.548889,169.054459 434.212677,168.827805 427.884369,168.937225 
	C423.516785,169.012726 423.815308,166.101074 423.782349,163.166534 
	C423.750153,160.297852 423.777924,157.740540 427.773010,157.823700 
	C432.434692,157.920731 437.111755,157.969025 441.758240,157.668579 
	C443.065277,157.584061 445.381989,156.173370 445.363190,155.417496 
	C445.275513,151.887726 444.532745,148.374207 444.024109,144.854889 
	C444.767761,144.693634 445.511414,144.532394 446.255035,144.371124 
	C446.766907,148.460434 447.712616,152.570160 447.521698,156.626389 
	C447.465698,157.816147 444.281189,159.535385 442.357117,159.814011 
	C438.782837,160.331573 435.079926,160.022781 431.432587,159.952866 
	C428.844971,159.903259 426.878479,160.199875 426.902008,163.592484 
	C426.926880,167.172745 429.236542,166.990036 431.634094,166.979538 
	C436.775391,166.957031 441.916748,166.953552 447.861389,166.948395 
	C449.112885,166.947052 449.561066,166.939606 450.009216,166.932144 
	C451.269958,168.378098 453.525208,169.778030 453.594666,171.279083 
	C453.764862,174.959106 452.926941,178.685776 451.816864,182.677673 
	C449.425964,182.990143 447.712830,183.018616 445.999725,183.047073 
	C444.286194,183.038910 442.572662,183.030762 440.431274,183.040894 
	C431.190643,183.038284 422.376343,182.914429 413.565887,183.046524 
	C409.981384,183.100266 407.736542,182.162735 407.779266,178.150589 
	C407.851379,171.381042 407.890991,164.611038 407.916748,157.841125 
	C407.938263,152.187500 407.776581,146.528809 407.969574,140.881714 
	C408.102600,136.989304 407.066101,135.034134 402.832458,136.501343 
	C402.212097,136.716354 401.538391,136.809219 400.880890,136.880325 
	C391.945740,137.846710 391.940643,137.843292 391.935516,147.135773 
	C391.930389,156.447754 392.043701,165.761810 391.863068,175.070267 
	C391.816559,177.468430 390.860260,179.848969 390.149170,182.572510 
M375.253754,136.818375 
	C375.328522,149.613480 375.568848,162.410950 375.387787,175.202423 
	C375.324890,179.648697 376.904358,181.335419 381.177765,180.829330 
	C381.997253,180.732254 382.848083,180.737396 383.668060,180.834305 
	C388.112610,181.359497 389.909912,179.704910 389.758118,174.968414 
	C389.444122,165.170364 389.665436,155.355072 389.671570,145.546860 
	C389.677887,135.462830 389.674011,135.272995 399.765564,134.930923 
	C404.439301,134.772507 404.122131,131.913269 404.081696,128.841507 
	C404.040436,125.709641 404.738525,122.299484 399.665436,122.361565 
	C388.362823,122.499908 377.055237,122.525078 365.753937,122.338547 
	C360.862213,122.257805 361.024780,125.292206 361.063416,128.615967 
	C361.100769,131.827194 360.587860,135.114243 365.637939,134.946808 
	C368.676727,134.846069 371.744110,135.608459 375.253754,136.818375 
z"/>
<path fill="#2B3849" opacity="1.000000" stroke="none" 
	d="
M776.015076,144.993164 
	C776.961426,146.693985 777.907715,148.394821 778.163391,148.854309 
	C780.319031,143.327286 782.178162,136.015961 785.835022,129.754486 
	C791.998108,119.201614 801.152283,117.587021 812.620300,119.395149 
	C823.009705,121.033226 829.361938,128.342270 832.323303,138.267990 
	C832.731384,139.635864 831.013611,141.637955 829.678833,143.650620 
	C828.094849,144.100906 827.100952,144.194855 826.130981,144.401382 
	C818.512695,146.023483 817.501160,145.316345 813.128052,139.024643 
	C811.752136,137.044983 808.642273,135.309769 806.295166,135.269760 
	C804.417480,135.237747 801.653320,137.550507 800.738220,139.504318 
	C797.237549,146.979080 797.547363,154.825607 799.786133,162.672104 
	C800.222656,164.201813 800.278809,165.840027 800.171753,167.347946 
	C793.880310,158.014618 794.625732,148.347305 798.220947,138.590729 
	C799.662354,134.678726 802.621643,132.238434 806.884033,132.157013 
	C811.441528,132.069931 814.193542,134.883850 815.933167,138.813614 
	C817.715149,142.839279 822.063049,144.035324 827.462036,141.373718 
	C831.632874,139.317581 828.948547,136.060074 827.793396,133.719452 
	C823.956543,125.945457 817.772400,121.827904 808.783691,121.463768 
	C798.820618,121.060158 791.044983,124.367348 786.299805,133.195953 
	C780.556519,143.881790 779.989685,155.193756 784.106934,166.548462 
	C788.247437,177.967377 796.442871,183.252686 808.508057,181.782486 
	C812.905579,181.246628 817.061768,178.730774 821.800171,176.939819 
	C821.848511,176.992355 822.289612,177.748001 822.947632,178.131470 
	C824.510803,179.042404 826.176758,179.777115 827.801147,180.583008 
	C828.548157,178.954956 829.885498,177.346420 829.940063,175.695480 
	C830.176575,168.543747 829.917358,161.376740 830.087402,154.221207 
	C830.173157,150.612457 828.902466,149.012360 825.182068,149.169647 
	C820.860657,149.352386 816.504028,149.489288 812.202393,149.147156 
	C807.351868,148.761368 805.873474,150.581635 805.939087,155.398087 
	C806.003357,160.120651 808.413452,160.405762 811.963806,160.359924 
	C813.476318,160.340378 816.053162,160.832230 816.290710,161.638489 
	C816.737244,163.153854 816.265930,165.317841 815.418335,166.769608 
	C812.083984,172.480927 804.877441,172.743637 800.958496,167.383011 
	C802.583557,167.642731 803.836304,167.971512 805.051025,168.406555 
	C809.144348,169.872391 812.078552,168.182205 813.387268,163.271286 
	C811.879944,163.131943 810.413025,163.100510 808.986267,162.844635 
	C804.937683,162.118576 802.724609,158.492188 803.114075,153.281998 
	C803.430420,149.050522 805.083862,146.644440 809.997375,146.932312 
	C816.623230,147.320496 823.288025,147.044647 829.936157,147.053741 
	C830.941772,149.896484 832.631592,152.695694 832.815796,155.590698 
	C833.247009,162.368805 832.982422,169.192947 832.950928,175.998215 
	C832.920837,182.494476 829.402893,184.612000 823.118958,182.441299 
	C821.041565,181.723709 818.350952,181.571228 816.283020,182.231827 
	C802.464783,186.646072 789.842224,184.351028 783.424683,170.593246 
	C781.302917,166.044617 780.029541,161.100220 778.415100,156.470993 
	C777.906982,157.116714 777.232544,157.973801 776.183044,158.476135 
	C775.701599,156.691803 775.595154,155.262238 775.544678,153.447083 
	C775.552490,151.766617 775.504395,150.471756 775.641235,148.790619 
	C775.889160,147.267288 775.952087,146.130234 776.015076,144.993164 
z"/>
<path fill="#2B3849" opacity="1.000000" stroke="none" 
	d="
M574.003113,120.067947 
	C584.398804,118.188919 591.490784,121.736130 595.192627,132.076569 
	C596.545593,135.856003 599.387817,139.102280 602.224365,143.678848 
	C603.028809,141.006683 603.519470,139.376785 604.022217,136.998245 
	C604.030151,135.500031 604.026062,134.750443 604.021851,134.000854 
	C604.027649,130.969360 604.033447,127.937866 604.043579,124.452011 
	C606.409851,118.545151 611.120728,119.816101 615.250671,120.448219 
	C619.326538,121.072060 620.011658,124.302658 619.976318,128.025742 
	C619.850586,141.287521 619.953857,154.551300 619.912048,167.814148 
	C619.901123,171.266235 619.915161,174.750717 619.440796,178.153870 
	C619.237061,179.615585 618.117188,181.333710 616.892883,182.196777 
	C613.264771,184.754379 604.093262,182.806946 601.711121,178.987595 
	C597.582092,172.367249 593.723572,165.578598 589.631775,158.934311 
	C588.947998,157.824112 587.658875,157.086731 586.649475,156.177063 
	C586.091919,157.579773 585.109924,158.965683 585.053528,160.388275 
	C584.855957,165.376633 584.983032,170.377609 584.976135,175.373779 
	C584.965637,183.004898 584.953186,183.207169 577.105408,182.872971 
	C574.575378,182.765228 572.103699,181.285873 569.331055,179.715424 
	C569.075134,160.341354 569.093506,141.685822 569.380371,122.864883 
	C571.100281,121.822289 572.551697,120.945122 574.003113,120.067947 
M592.174316,158.306061 
	C595.349976,163.778748 599.031006,169.029724 601.557068,174.787415 
	C604.008789,180.375351 607.992493,181.215622 613.175476,180.812454 
	C615.750000,180.612183 617.140015,179.815994 617.128418,176.938202 
	C617.061340,160.279770 617.027588,143.620331 617.152527,126.962517 
	C617.187378,122.319603 614.243347,122.679710 611.130676,122.501701 
	C607.522827,122.295380 606.522522,123.927055 606.593018,127.269730 
	C606.747620,134.596207 606.657837,141.928543 606.604858,149.258026 
	C606.596375,150.438843 606.262817,151.617310 605.906189,153.912506 
	C604.376892,152.004364 603.461670,151.108246 602.835938,150.042267 
	C598.284302,142.289246 593.640869,134.583374 589.358215,126.682785 
	C587.798767,123.805969 585.952393,122.371254 582.726074,122.535347 
	C580.732849,122.636711 578.722351,122.633118 576.731628,122.498711 
	C573.148621,122.256767 571.704407,123.647179 571.741760,127.411461 
	C571.901855,143.568954 571.953918,159.730469 571.746216,175.886673 
	C571.690674,180.206100 573.696960,180.840073 577.229248,180.820312 
	C580.626343,180.801300 583.040771,180.480530 582.912964,176.067078 
	C582.676758,167.910995 582.806702,159.743317 582.850830,151.580841 
	C582.861084,149.685745 583.139832,147.792114 583.295044,145.897812 
	C583.740540,145.774277 584.186096,145.650742 584.631653,145.527206 
	C587.016479,149.578949 589.401367,153.630692 592.174316,158.306061 
z"/>
<path fill="#2B3849" opacity="1.000000" stroke="none" 
	d="
M505.997498,171.999390 
	C504.429199,174.121292 502.860870,176.243179 501.133423,178.649887 
	C497.826233,180.440887 494.678192,181.947067 491.256409,183.676880 
	C488.683289,183.932587 486.346191,183.708878 484.091187,184.041458 
	C474.911255,185.395401 467.894592,181.419235 461.315735,174.784561 
	C459.652161,172.815201 458.354614,171.349747 457.057068,169.884277 
	C456.053955,163.372879 454.305939,156.873352 454.202026,150.347641 
	C453.982697,136.574371 461.988220,124.244766 473.918213,120.274963 
	C481.542755,117.737831 489.572083,117.617592 496.878967,122.304779 
	C498.689484,123.466171 500.600159,124.471466 502.791382,126.115326 
	C504.398834,128.813828 505.679688,130.945496 506.960541,133.077179 
	C507.812744,135.908020 508.695251,138.730194 509.509033,141.572037 
	C510.406158,144.704941 508.839294,146.482513 505.955780,146.871277 
	C502.192383,147.378647 498.250854,148.125763 494.621857,147.468018 
	C492.533081,147.089432 489.721985,144.366180 489.329712,142.300735 
	C488.559143,138.243362 487.663483,135.147247 482.961853,134.996567 
	C478.784729,134.862686 476.207611,137.565887 475.994476,142.890884 
	C475.738312,149.291580 475.488922,155.762421 476.195526,162.095901 
	C476.462402,164.487732 478.973694,167.376007 481.239594,168.611038 
	C484.144196,170.194153 486.968597,168.349945 488.745453,165.496338 
	C488.833252,165.355362 488.964355,165.223007 488.998444,165.069550 
	C490.766327,157.111923 496.821808,157.734390 502.838409,158.029648 
	C508.664154,158.315536 509.977692,160.078949 508.275513,165.723129 
	C508.039459,166.505859 508.042358,167.360626 507.702026,168.771698 
	C506.978821,170.240707 506.488159,171.120041 505.997498,171.999390 
M458.833710,164.420364 
	C463.492249,177.908295 474.622833,184.411087 488.583405,181.644608 
	C497.543762,179.868958 503.502075,174.581558 505.934662,165.712784 
	C506.299683,164.381989 506.015472,162.020935 505.120483,161.347824 
	C501.683868,158.763138 493.754089,161.208817 491.986725,165.082565 
	C490.156494,169.093933 487.195526,171.482788 482.652710,171.237595 
	C478.202026,170.997391 475.035309,168.632111 473.804626,164.379608 
	C471.392334,156.044205 471.304535,147.596573 473.947418,139.296555 
	C475.386810,134.776093 478.612671,131.851501 483.594727,132.163361 
	C488.463531,132.468124 491.140015,135.870361 491.613586,140.336182 
	C492.085114,144.782684 494.337250,145.499191 498.018677,144.957458 
	C499.326508,144.764999 500.690277,144.718445 502.004639,144.847839 
	C506.035706,145.244690 506.774323,143.415482 506.135742,139.763672 
	C503.237732,123.191177 482.885193,115.198494 468.855835,125.224365 
	C458.168610,132.861832 454.137177,147.862946 458.833710,164.420364 
z"/>
<path fill="#2B3849" opacity="1.000000" stroke="none" 
	d="
M543.087524,157.421692 
	C546.591003,155.907501 547.866760,157.450165 547.793396,160.973907 
	C547.685974,166.135437 547.881165,171.304062 547.736145,176.463730 
	C547.644653,179.719696 548.970032,181.071213 552.183716,180.781387 
	C553.505371,180.662170 554.854248,180.677795 556.178345,180.785202 
	C559.716187,181.072189 561.224243,179.788635 561.184509,175.960938 
	C561.016785,159.804733 561.036682,143.645126 561.171509,127.488312 
	C561.202209,123.800041 559.863770,122.524902 556.218933,122.482010 
	C547.754639,122.382378 547.754639,122.240372 547.749023,130.837524 
	C547.747070,133.835907 547.664246,136.837875 547.782715,139.831711 
	C547.919006,143.275330 546.349548,144.579819 542.970398,144.515488 
	C526.400940,144.199997 529.549561,146.719437 529.178040,131.452209 
	C529.169983,131.119247 529.176392,130.785934 529.175842,130.452774 
	C529.163879,123.151138 524.598328,119.967590 517.895691,122.836723 
	C516.884827,123.269424 515.898804,125.123383 515.889465,126.327576 
	C515.757751,143.317215 515.723328,160.309174 515.956177,177.296600 
	C515.972290,178.469421 518.199585,179.743378 519.584351,180.701920 
	C520.146057,181.090729 521.205322,180.759918 522.038208,180.757614 
	C529.215454,180.737747 529.210754,180.737839 529.195801,173.747147 
	C529.186523,169.416183 528.948547,165.063202 529.333252,160.766678 
	C529.459900,159.352646 531.217407,158.084625 532.622925,156.912445 
	C532.362000,163.582016 531.247070,170.086197 531.207642,176.596924 
	C531.179382,181.257675 529.401855,183.934769 525.132874,183.507324 
	C521.091248,183.102661 515.873535,185.066406 513.187500,179.328369 
	C513.033020,162.735748 513.029846,146.469498 513.037415,130.203232 
	C513.041748,120.940392 514.683533,119.283714 524.051819,119.076935 
	C525.382690,119.047554 526.715332,119.099976 528.566284,119.415985 
	C529.701660,120.176285 530.317932,120.635132 530.934143,121.093979 
	C530.987915,125.750168 531.041687,130.406357 531.092773,135.853394 
	C531.353333,137.438080 531.616577,138.231934 531.879822,139.025787 
	C533.181030,140.022263 534.350037,141.446442 535.818909,141.900375 
	C537.433838,142.399475 539.324768,142.005768 541.954224,141.968689 
	C543.556458,140.683472 544.826843,139.476746 544.941406,138.168808 
	C545.245117,134.700943 544.671265,131.133698 545.174805,127.713211 
	C545.560364,125.094406 547.055908,122.639030 548.057739,120.110970 
	C551.072815,119.816475 554.087830,119.521988 557.612976,119.471153 
	C559.746277,120.476730 561.369507,121.238655 563.000061,122.469162 
	C563.008667,142.291428 563.009949,161.645111 563.011292,180.998779 
	C560.512573,182.901657 549.465576,184.197922 547.523438,182.293503 
	C546.166565,180.962936 545.324585,178.621216 545.163879,176.656601 
	C544.813721,172.374329 545.234375,168.032227 544.955994,163.739471 
	C544.825439,161.725906 543.805603,159.770004 543.087524,157.421692 
z"/>
<path fill="#2B3849" opacity="1.000000" stroke="none" 
	d="
M732.132202,174.939026 
	C731.330811,174.781998 730.344421,174.869751 729.758667,174.427277 
	C726.526733,171.985809 724.891785,173.371994 725.118896,176.749481 
	C725.478333,182.094391 722.957153,183.202042 718.231567,183.072754 
	C708.576965,182.808624 698.908813,182.904556 689.248718,183.035492 
	C684.790894,183.095917 682.949890,181.231567 682.978760,176.757874 
	C683.087402,159.933640 683.140381,143.106720 682.928894,126.284409 
	C682.878418,122.268829 684.321289,120.222801 688.134460,120.085503 
	C691.552917,119.962410 695.168823,119.687187 698.339294,120.654083 
	C699.962280,121.149055 701.776733,124.188194 701.833069,126.126106 
	C702.162231,137.444290 701.975769,148.776901 702.005676,160.104523 
	C702.022705,166.532288 702.469238,166.955246 708.769836,166.980225 
	C712.767761,166.996078 716.771667,166.856613 720.762146,167.030853 
	C724.504333,167.194229 725.364624,165.921646 724.359680,162.260086 
	C721.567566,152.086380 722.662109,142.123047 727.387817,132.725739 
	C735.728088,116.140724 757.840515,115.032478 767.551453,125.153648 
	C768.114746,125.740784 768.487610,126.510704 768.852417,127.727013 
	C768.626404,128.394287 768.497009,128.530151 768.054932,128.565430 
	C766.405212,127.366028 765.068176,126.267212 763.645630,124.828156 
	C760.362366,123.576462 757.164612,122.665001 753.535767,121.693695 
	C751.077087,121.685471 749.049561,121.737091 746.758057,121.616470 
	C744.485596,122.083542 742.477051,122.722839 740.200195,123.408813 
	C739.623413,123.639809 739.314758,123.824127 738.685181,123.976044 
	C737.780273,124.513222 737.196411,125.082802 736.347046,125.831680 
	C734.629089,127.567947 733.176636,129.124908 731.414185,130.766113 
	C730.765869,131.583878 730.427551,132.317383 729.921753,133.261017 
	C729.641174,133.809402 729.528076,134.147659 729.093872,134.642487 
	C725.095154,141.653625 724.288757,149.051758 725.495056,156.535812 
	C726.156311,160.638367 728.032104,164.545166 729.429749,168.799072 
	C729.684937,169.361343 729.870667,169.664795 730.003418,170.287262 
	C730.518555,171.196320 731.086487,171.786362 731.714050,172.549255 
	C731.773682,172.722092 732.033020,172.979752 731.975281,173.306686 
	C731.989075,174.068756 732.060669,174.503891 732.132202,174.939026 
M685.407349,139.506409 
	C685.415894,151.647720 685.484863,163.789474 685.392700,175.930023 
	C685.368103,179.175934 686.278687,180.895905 689.882629,180.848618 
	C699.527527,180.722015 709.175781,180.728088 718.821228,180.826141 
	C723.741333,180.876144 722.699402,177.390503 722.813416,174.557693 
	C722.930969,171.635483 723.123413,168.715958 718.733459,168.851791 
	C714.080994,168.995743 709.414734,168.738312 704.765564,168.927582 
	C700.868958,169.086197 699.504883,167.511581 699.572205,163.629822 
	C699.759766,152.822266 699.637451,142.009430 699.646790,131.198669 
	C699.654602,122.159477 699.660400,122.159729 690.700500,122.417648 
	C690.201782,122.432007 689.501587,122.227501 689.237793,122.481140 
	C687.899597,123.767693 685.781677,125.054428 685.583740,126.557922 
	C685.067078,130.481644 685.408447,134.518341 685.407349,139.506409 
z"/>
<path fill="#969FA9" opacity="1.000000" stroke="none" 
	d="
M320.042969,173.093155 
	C318.822815,171.668304 317.787567,169.876968 316.605377,169.774078 
	C312.476532,169.414719 308.197235,169.120743 304.185181,169.893097 
	C302.553680,170.207169 301.235748,173.201340 300.180145,175.190964 
	C298.845978,177.705688 299.102112,181.480743 295.020599,181.639771 
	C284.154327,182.063187 283.725067,182.010681 287.003418,172.181076 
	C292.050751,157.047409 296.829651,141.822342 301.544556,126.581017 
	C302.733917,122.736259 304.908600,121.372803 308.841187,121.455658 
	C323.151581,121.757164 320.080658,119.576370 324.268829,132.754318 
	C328.748627,146.849731 333.077637,160.993576 337.392059,175.140793 
	C339.223572,181.146545 338.738373,181.691055 332.393829,181.737213 
	C332.060944,181.739639 331.728058,181.738846 331.395172,181.740204 
	C322.558777,181.776306 322.558777,181.776321 320.042969,173.093155 
M331.021729,161.537735 
	C327.555359,150.268951 324.035156,139.016235 320.660889,127.719940 
	C319.830231,124.939163 318.480530,123.387413 315.394318,123.662025 
	C313.578186,123.823631 311.721039,123.850266 309.909424,123.668167 
	C306.221741,123.297501 304.195160,124.590622 303.030792,128.371002 
	C298.238190,143.931274 293.115021,159.389542 288.191040,174.909958 
	C287.766815,176.247147 287.912354,177.765091 287.798798,179.131805 
	C294.760925,180.693085 296.531677,180.051163 297.851990,175.763062 
	C300.458344,167.298157 300.458160,167.301712 309.516937,167.785629 
	C310.512970,167.838837 311.512695,167.830048 312.510803,167.837036 
	C320.463104,167.892639 320.336395,167.937302 322.975830,175.269440 
	C323.605042,177.017303 325.159363,179.295029 326.692902,179.668793 
	C329.585388,180.373810 332.771912,179.872345 336.633911,179.872345 
	C334.663300,173.319244 333.002594,167.796646 331.021729,161.537735 
z"/>
<path fill="#2B3849" opacity="1.000000" stroke="none" 
	d="
M635.376221,176.587845 
	C628.873779,175.687088 628.649719,169.513809 626.317139,165.324677 
	C624.865906,162.718521 624.454712,159.353775 624.221008,156.280487 
	C623.243103,143.424301 626.902100,125.827301 642.274414,120.346825 
	C652.301941,116.771835 667.131592,118.490097 672.491943,130.057755 
	C674.909424,135.274750 677.746033,140.438812 679.132568,145.944214 
	C680.109192,149.821899 679.515198,154.358063 678.617432,158.375671 
	C677.589844,162.974350 675.944153,167.592697 673.698181,171.730927 
	C667.640564,182.892059 653.859009,187.998383 641.890381,183.444977 
	C639.275757,182.450272 637.435608,179.419800 635.665100,177.011200 
	C649.161560,187.009857 666.855347,182.874039 673.509094,167.641312 
	C678.194275,156.915405 678.111633,145.949219 673.127563,135.250183 
	C668.151001,124.567383 661.592957,120.942551 649.058289,121.609520 
	C639.672729,122.108925 632.348816,127.868195 628.960083,137.632370 
	C624.059937,151.751572 626.325562,164.741058 635.376221,176.587845 
z"/>
<path fill="#2B3849" opacity="1.000000" stroke="none" 
	d="
M858.001831,180.000000 
	C854.563904,183.766205 844.646790,185.213043 841.194397,182.060913 
	C839.926758,180.903580 839.178223,178.559265 839.161072,176.747253 
	C839.005554,160.315735 839.091187,143.882111 839.043030,127.449295 
	C839.030212,123.085548 841.129517,120.079399 845.327637,119.987213 
	C849.637207,119.892570 854.730835,118.323402 857.926208,124.113319 
	C857.998230,143.292206 858.000000,161.646103 858.001831,180.000000 
M855.650879,159.499268 
	C855.650635,149.006409 855.315735,138.498901 855.774780,128.026169 
	C856.052734,121.685890 852.087280,122.617851 848.336609,122.436348 
	C844.453552,122.248421 841.656433,122.624130 841.756042,127.889626 
	C842.039429,142.873962 841.851868,157.867233 841.848022,172.856979 
	C841.846008,180.893173 841.844543,180.893143 849.689697,180.819626 
	C849.856262,180.818069 850.024597,180.803177 850.189148,180.821487 
	C854.180054,181.265839 855.997803,179.773621 855.733948,175.484238 
	C855.427795,170.506134 855.652649,165.495361 855.650879,159.499268 
z"/>
<path fill="#0A1C33" opacity="1.000000" stroke="none" 
	d="
M563.414185,180.999146 
	C563.009949,161.645111 563.008667,142.291428 563.387207,122.483597 
	C565.548584,122.363060 567.330261,122.696678 569.111877,123.030304 
	C569.093506,141.685822 569.075134,160.341354 569.066345,179.456558 
	C567.322998,180.277328 565.570007,180.638412 563.414185,180.999146 
z"/>
<path fill="#0A1C33" opacity="1.000000" stroke="none" 
	d="
M830.162598,146.838959 
	C823.288025,147.044647 816.623230,147.320496 809.997375,146.932312 
	C805.083862,146.644440 803.430420,149.050522 803.114075,153.281998 
	C802.724609,158.492188 804.937683,162.118576 808.986267,162.844635 
	C810.413025,163.100510 811.879944,163.131943 813.387268,163.271286 
	C812.078552,168.182205 809.144348,169.872391 805.051025,168.406555 
	C803.836304,167.971512 802.583557,167.642731 801.004028,167.316391 
	C800.659912,167.367538 800.510376,167.428207 800.510376,167.428207 
	C800.278809,165.840027 800.222656,164.201813 799.786133,162.672104 
	C797.547363,154.825607 797.237549,146.979080 800.738220,139.504318 
	C801.653320,137.550507 804.417480,135.237747 806.295166,135.269760 
	C808.642273,135.309769 811.752136,137.044983 813.128052,139.024643 
	C817.501160,145.316345 818.512695,146.023483 826.130981,144.401382 
	C827.100952,144.194855 828.094849,144.100906 829.493164,143.937683 
	C830.068726,144.821747 830.228943,145.722946 830.162598,146.838959 
z"/>
<path fill="#0A1C33" opacity="1.000000" stroke="none" 
	d="
M954.024658,179.251022 
	C956.287170,174.576523 959.622070,170.500687 960.741516,165.887283 
	C963.091187,156.203705 955.682190,146.458298 945.462402,143.995789 
	C941.457092,143.030701 937.398010,142.175827 933.536255,140.789413 
	C932.174072,140.300385 931.326904,138.377090 930.244568,137.108643 
	C931.577881,136.389801 933.036560,134.910019 934.219360,135.104889 
	C936.986145,135.560699 939.614258,136.838882 942.310730,137.747742 
	C944.563049,138.506866 946.832825,139.214401 949.494629,139.931976 
	C951.285339,140.808502 952.670654,141.706726 954.068359,142.585190 
	C956.319031,143.999664 958.577942,145.401138 960.595947,146.660034 
	C961.662231,148.845642 962.868408,151.204346 963.959290,153.615250 
	C964.346680,154.471451 964.529419,155.442871 964.673645,156.381958 
	C965.015015,158.604492 964.560547,161.339569 965.703552,162.976776 
	C969.380859,168.244019 966.695007,171.388306 962.883240,174.674606 
	C961.206787,176.119919 959.794128,177.960541 958.576050,179.826813 
	C956.807190,182.537003 955.446960,182.581207 954.024658,179.251022 
z"/>
<path fill="#0A1C33" opacity="1.000000" stroke="none" 
	d="
M858.346863,179.942505 
	C858.000000,161.646103 857.998230,143.292206 858.004456,124.469894 
	C859.758606,124.630768 861.504822,125.260063 863.592651,125.944618 
	C863.948425,142.021515 863.962402,158.043137 863.957581,174.533737 
	C862.189819,176.630142 860.440857,178.257584 858.346863,179.942505 
z"/>
<path fill="#2B3849" opacity="1.000000" stroke="none" 
	d="
M765.246887,179.298492 
	C765.182800,179.450653 765.152710,179.632355 765.049866,179.750793 
	C758.740417,187.015549 739.516907,185.670593 734.387573,177.256775 
	C735.099487,176.983459 735.512085,177.042542 736.067505,177.336151 
	C736.645996,177.895569 737.081787,178.220474 737.683350,178.854523 
	C740.608704,180.012527 743.368286,180.861404 746.559326,181.789871 
	C749.616150,181.808685 752.241577,181.747910 755.237793,181.819092 
	C758.680115,180.897171 761.751465,179.843292 764.929932,178.915833 
	C765.036926,179.042267 765.246887,179.298492 765.246887,179.298492 
z"/>
<path fill="#2B3849" opacity="1.000000" stroke="none" 
	d="
M768.950073,128.054810 
	C773.961548,130.672424 775.095032,135.396698 775.142151,140.496246 
	C773.252380,137.919189 771.860657,135.270767 770.387207,132.307678 
	C769.659485,130.884018 769.013489,129.775024 768.367554,128.666016 
	C768.497009,128.530151 768.626404,128.394287 768.950073,128.054810 
z"/>
<path fill="#ACB4BD" opacity="1.000000" stroke="none" 
	d="
M770.468994,132.622345 
	C771.860657,135.270767 773.252380,137.919189 774.938965,140.778580 
	C775.414917,142.110687 775.595947,143.231842 775.895996,144.673080 
	C775.952087,146.130234 775.889160,147.267288 775.345520,148.605347 
	C773.399536,143.411667 771.934265,138.017014 770.468994,132.622345 
z"/>
<path fill="#2B3849" opacity="1.000000" stroke="none" 
	d="
M775.422852,162.326202 
	C775.815613,167.030716 774.646912,171.077042 770.221802,173.577316 
	C769.924744,172.840393 769.954834,172.414749 770.108521,171.853363 
	C770.232117,171.717621 770.343689,171.367828 770.649536,171.258438 
	C771.198120,170.385010 771.440857,169.620972 771.840332,168.577423 
	C772.190308,167.694870 772.383484,167.091782 772.887207,166.373138 
	C773.939392,164.947113 774.681091,163.636658 775.422852,162.326202 
z"/>
<path fill="#ACB4BD" opacity="1.000000" stroke="none" 
	d="
M775.420410,161.987549 
	C774.681091,163.636658 773.939392,164.947113 772.766113,165.965958 
	C773.385986,161.727127 774.437378,157.779892 775.488708,153.832657 
	C775.595154,155.262238 775.701599,156.691803 775.874146,158.554047 
	C775.766174,159.874115 775.592041,160.761505 775.420410,161.987549 
z"/>
<path fill="#2B3849" opacity="1.000000" stroke="none" 
	d="
M768.950317,174.899307 
	C767.945312,176.299957 766.940247,177.700623 765.591064,179.199890 
	C765.246887,179.298492 765.036926,179.042267 765.061829,178.647507 
	C765.463745,177.579895 765.840698,176.907059 766.226990,176.226074 
	C766.236267,176.217957 766.252563,176.199112 766.559631,176.178787 
	C767.561218,175.738739 768.255798,175.319031 768.950317,174.899307 
z"/>
<path fill="#ACB4BD" opacity="1.000000" stroke="none" 
	d="
M735.924683,177.101624 
	C735.512085,177.042542 735.099487,176.983459 734.371582,176.900452 
	C733.586792,176.303680 733.117310,175.730835 732.390015,175.048508 
	C732.060669,174.503891 731.989075,174.068756 732.319580,173.312820 
	C733.789307,174.361877 734.856995,175.731735 735.924683,177.101624 
z"/>
<path fill="#ACB4BD" opacity="1.000000" stroke="none" 
	d="
M769.019958,174.676224 
	C768.255798,175.319031 767.561218,175.738739 766.512634,175.835083 
	C767.433960,174.337509 768.709412,173.163300 769.984863,171.989105 
	C769.954834,172.414749 769.924744,172.840393 769.859680,173.589920 
	C769.499207,173.983917 769.254150,174.163696 769.019958,174.676224 
z"/>
<path fill="#0A1C33" opacity="1.000000" stroke="none" 
	d="
M596.302490,112.928864 
	C596.243713,112.173157 596.487427,111.346306 596.731140,110.519463 
	C597.041382,110.648468 597.351685,110.777473 597.661926,110.906479 
	C597.309570,111.556892 596.957214,112.207314 596.302490,112.928864 
z"/>
<path fill="#E6EAEC" opacity="1.000000" stroke="none" 
	d="
M443.566711,144.967621 
	C444.532745,148.374207 445.275513,151.887726 445.363190,155.417496 
	C445.381989,156.173370 443.065277,157.584061 441.758240,157.668579 
	C437.111755,157.969025 432.434692,157.920731 427.773010,157.823700 
	C423.777924,157.740540 423.750153,160.297852 423.782349,163.166534 
	C423.815308,166.101074 423.516785,169.012726 427.884369,168.937225 
	C434.212677,168.827805 440.548889,169.054459 446.872742,168.854050 
	C451.272797,168.714615 451.595123,171.213181 451.519867,174.608505 
	C451.445465,177.964523 451.686066,180.925186 446.800079,180.837097 
	C435.975769,180.641937 425.144714,180.723618 414.317810,180.833130 
	C411.012939,180.866562 409.499847,179.833420 409.528015,176.250687 
	C409.656219,159.926483 409.643219,143.600418 409.546661,127.275826 
	C409.526642,123.893829 410.736877,122.427475 414.185577,122.451530 
	C425.012634,122.527084 435.842194,122.551689 446.667694,122.389084 
	C451.281281,122.319786 451.634949,124.918251 451.564789,128.526794 
	C451.493652,132.185226 451.408081,135.139557 446.390839,134.901123 
	C440.407471,134.616760 434.390717,134.657425 428.409393,134.965240 
	C426.845551,135.045715 424.067535,136.660706 424.081879,137.534180 
	C424.123749,140.079269 421.754974,143.734848 426.637482,144.912720 
	C432.393402,144.862778 437.751343,144.971558 443.566711,144.967621 
z"/>
<path fill="#0B1D35" opacity="1.000000" stroke="none" 
	d="
M547.808350,119.824783 
	C547.055908,122.639030 545.560364,125.094406 545.174805,127.713211 
	C544.671265,131.133698 545.245117,134.700943 544.941406,138.168808 
	C544.826843,139.476746 543.556458,140.683472 542.405151,141.956696 
	C541.046265,139.308517 538.906128,136.759888 542.095154,133.904144 
	C542.610413,133.442703 541.443176,130.687347 540.620911,129.237839 
	C539.122375,126.595955 537.299561,124.137978 535.530762,121.481186 
	C539.827454,118.518440 543.322754,116.387344 547.808350,119.824783 
z"/>
<path fill="#0B1D35" opacity="1.000000" stroke="none" 
	d="
M569.380371,122.864883 
	C567.330261,122.696678 565.548584,122.363060 563.379883,122.015015 
	C561.369507,121.238655 559.746277,120.476730 558.002441,119.389107 
	C560.233521,118.213531 562.585083,117.363647 564.936707,116.513763 
	C564.855591,116.111038 564.774536,115.708313 564.693420,115.305588 
	C567.730225,116.657303 570.767029,118.009010 573.903442,119.714340 
	C572.551697,120.945122 571.100281,121.822289 569.380371,122.864883 
z"/>
<path fill="#0B1D35" opacity="1.000000" stroke="none" 
	d="
M446.059814,183.390396 
	C447.712830,183.018616 449.425964,182.990143 451.567078,182.958160 
	C451.878754,184.490646 451.762421,186.026657 451.646088,187.562683 
	C451.183563,187.803833 450.721069,188.044983 450.258545,188.286133 
	C448.878998,186.768661 447.499451,185.251190 446.059814,183.390396 
z"/>
<path fill="#0B1D35" opacity="1.000000" stroke="none" 
	d="
M450.066956,166.574219 
	C449.561066,166.939606 449.112885,166.947052 448.329224,166.930298 
	C448.603455,164.379608 449.213196,161.853149 449.822906,159.326675 
	C450.457397,159.474548 451.091888,159.622437 451.726410,159.770309 
	C451.192505,161.918961 450.658600,164.067627 450.066956,166.574219 
z"/>
<path fill="#0B1D35" opacity="1.000000" stroke="none" 
	d="
M506.959961,132.695221 
	C505.679688,130.945496 504.398834,128.813828 503.039001,126.345001 
	C504.039062,125.830528 505.118103,125.653191 506.103729,125.491203 
	C506.408722,127.923035 506.684021,130.118149 506.959961,132.695221 
z"/>
<path fill="#0B1D35" opacity="1.000000" stroke="none" 
	d="
M407.858307,120.772240 
	C405.772369,124.712837 404.373291,120.077744 402.190063,120.267715 
	C403.849243,120.190598 405.761353,120.330269 407.858307,120.772240 
z"/>
<path fill="#0B1D35" opacity="1.000000" stroke="none" 
	d="
M532.245361,139.002197 
	C531.616577,138.231934 531.353333,137.438080 531.117920,136.317749 
	C532.320007,136.487152 533.494202,136.983032 534.668335,137.478912 
	C533.982483,137.978821 533.296692,138.478714 532.245361,139.002197 
z"/>
<path fill="#0B1D35" opacity="1.000000" stroke="none" 
	d="
M457.086975,170.246460 
	C458.354614,171.349747 459.652161,172.815201 461.031067,174.613647 
	C459.780609,173.500656 458.448761,172.054657 457.086975,170.246460 
z"/>
<path fill="#0B1D35" opacity="1.000000" stroke="none" 
	d="
M531.068115,120.801743 
	C530.317932,120.635132 529.701660,120.176285 529.011841,119.425247 
	C529.535217,118.637917 530.132141,118.142769 530.729065,117.647621 
	C530.886780,118.601570 531.044434,119.555534 531.068115,120.801743 
z"/>
<path fill="#0B1D35" opacity="1.000000" stroke="none" 
	d="
M454.292206,131.912689 
	C453.958496,130.933105 453.954773,129.866806 453.954346,128.400558 
	C456.400085,128.889954 456.631287,130.163376 454.292206,131.912689 
z"/>
<path fill="#0B1D35" opacity="1.000000" stroke="none" 
	d="
M506.339172,171.984863 
	C506.488159,171.120041 506.978821,170.240707 507.689636,169.156311 
	C507.500153,169.957626 507.090485,170.963989 506.339172,171.984863 
z"/>
<path fill="#0B1D35" opacity="1.000000" stroke="none" 
	d="
M453.271973,135.975647 
	C453.136841,135.445419 453.320221,134.911041 453.705200,134.176422 
	C454.389862,134.287567 454.872925,134.598938 455.355957,134.910309 
	C454.767456,135.264038 454.178986,135.617767 453.271973,135.975647 
z"/>
<path fill="#0B1D35" opacity="1.000000" stroke="none" 
	d="
M603.708984,134.073486 
	C604.026062,134.750443 604.030151,135.500031 604.028198,136.624390 
	C603.813416,136.048157 603.604675,135.097122 603.708984,134.073486 
z"/>
<path fill="#0B1D35" opacity="1.000000" stroke="none" 
	d="
M474.457458,114.481941 
	C474.223450,114.021523 474.204590,113.645973 474.185730,113.270432 
	C474.589478,113.408752 474.993225,113.547066 475.396942,113.685379 
	C475.155487,113.979187 474.914062,114.272995 474.457458,114.481941 
z"/>
<path fill="#253343" opacity="1.000000" stroke="none" 
	d="
M263.708557,168.995804 
	C259.071381,169.498474 254.806656,170.071854 250.558868,169.965973 
	C249.440720,169.938110 247.597351,167.922180 247.409698,166.627487 
	C246.062927,157.335693 246.711151,156.692001 255.918671,156.691742 
	C257.573547,156.691681 259.505585,156.222122 260.822205,156.906723 
	C263.137543,158.110641 266.242432,159.702881 266.834259,161.760284 
	C267.388824,163.688156 265.115967,166.429321 263.708557,168.995804 
z"/>
<path fill="#2B3849" opacity="1.000000" stroke="none" 
	d="
M251.473846,133.384308 
	C254.738785,133.405106 257.594086,133.183563 260.378754,133.529861 
	C263.608063,133.931458 266.141144,135.640671 266.085632,139.294357 
	C266.028290,143.069763 263.779907,144.999115 260.037628,145.156616 
	C258.211700,145.233475 256.382721,145.266556 254.555054,145.268204 
	C247.428680,145.274597 245.396683,142.741486 247.452332,135.881607 
	C247.778778,134.792236 249.796967,134.209808 251.473846,133.384308 
z"/>
<path fill="#1E2C40" opacity="1.000000" stroke="none" 
	d="
M154.826843,154.499054 
	C152.749664,165.723923 147.657852,170.557434 139.016724,170.166031 
	C136.104187,170.034103 134.823166,168.976532 134.853333,165.961731 
	C134.948364,156.467484 134.933716,146.971161 134.848572,137.476669 
	C134.824066,134.744568 135.896896,133.651184 138.637985,133.468750 
	C145.813461,132.991165 151.464020,136.309875 153.567215,143.268509 
	C154.600998,146.688873 154.479446,150.458420 154.826843,154.499054 
z"/>
<path fill="#0F1F34" opacity="1.000000" stroke="none" 
	d="
M209.605057,143.217850 
	C209.656479,143.617676 209.707886,144.017517 209.501953,145.038910 
	C209.426361,149.769791 209.608093,153.879105 209.789841,157.988419 
	C209.771912,158.388733 209.753998,158.789062 209.377823,159.626358 
	C208.341660,161.570877 207.784225,163.148178 206.960297,164.571167 
	C205.341049,167.367798 203.475128,169.669830 199.643463,169.586914 
	C195.846313,169.504730 193.606079,167.435486 192.565155,164.327225 
	C189.697052,155.762939 189.148834,146.979370 192.973846,138.627869 
	C193.990921,136.407196 197.283966,133.982574 199.576233,133.938263 
	C201.929520,133.892776 204.555023,136.401230 206.643250,138.261383 
	C208.014297,139.482697 208.643585,141.536743 209.605057,143.217850 
z"/>
<path fill="#707984" opacity="1.000000" stroke="none" 
	d="
M209.755829,142.857727 
	C208.643585,141.536743 208.014297,139.482697 206.643250,138.261383 
	C204.555023,136.401230 201.929520,133.892776 199.576233,133.938263 
	C197.283966,133.982574 193.990921,136.407196 192.973846,138.627869 
	C189.148834,146.979370 189.697052,155.762939 192.565155,164.327225 
	C193.606079,167.435486 195.846313,169.504730 199.643463,169.586914 
	C203.475128,169.669830 205.341049,167.367798 206.960297,164.571167 
	C207.784225,163.148178 208.341660,161.570877 209.317627,159.921356 
	C209.658905,166.132187 206.007111,171.199051 200.955139,171.795914 
	C195.671570,172.420151 190.967209,169.045425 190.059570,162.515366 
	C189.158417,156.031952 188.944138,149.300049 189.596924,142.794342 
	C190.327896,135.509506 194.338531,131.820175 199.583847,131.714157 
	C204.828140,131.608185 207.922867,134.841034 209.755829,142.857727 
z"/>
<path fill="#707984" opacity="1.000000" stroke="none" 
	d="
M210.053955,157.678772 
	C209.608093,153.879105 209.426361,149.769791 209.493668,145.341583 
	C209.934509,149.138168 210.126282,153.253662 210.053955,157.678772 
z"/>
<path fill="#E8EBEE" opacity="1.000000" stroke="none" 
	d="
M901.005798,144.982697 
	C901.374756,145.904160 901.898987,146.794891 902.088379,147.751907 
	C903.752014,156.159454 902.419861,157.785919 893.963684,157.806381 
	C891.464355,157.812439 888.964966,157.806686 886.465698,157.824203 
	C880.453674,157.866348 880.117249,158.372787 880.244751,164.464462 
	C880.311157,167.640518 881.514587,169.003052 884.713806,168.952393 
	C891.043823,168.852142 897.383911,169.111557 903.705811,168.864410 
	C908.631531,168.671844 908.361572,171.743256 908.404236,175.075821 
	C908.446655,178.394714 908.278687,180.910538 903.772644,180.827393 
	C892.612915,180.621536 881.446167,180.707657 870.283447,180.812119 
	C867.044067,180.842438 865.946899,179.569458 865.967102,176.354172 
	C866.070923,159.859268 866.057190,143.362900 865.946655,126.867973 
	C865.924561,123.571472 867.259460,122.465523 870.407776,122.491722 
	C881.570740,122.584648 892.736206,122.635307 903.897827,122.485184 
	C908.442505,122.424049 908.495850,125.178085 908.392822,128.411987 
	C908.292847,131.552063 909.036865,135.024857 903.945740,134.872833 
	C897.952515,134.693863 891.942627,134.651154 885.956238,134.916931 
	C884.087097,134.999908 880.753174,136.196838 880.710876,137.018723 
	C880.576294,139.632614 881.676819,142.310089 883.116272,144.998688 
	C889.623596,145.017151 895.314697,144.999924 901.005798,144.982697 
z"/>
<path fill="#E7EAED" opacity="1.000000" stroke="none" 
	d="
M946.733337,180.017059 
	C938.877625,182.712585 931.304138,182.955490 923.801208,180.448135 
	C917.218323,178.248215 912.946228,173.685867 910.912231,166.370972 
	C913.221802,165.516403 915.342529,164.728943 917.465210,163.946991 
	C920.663635,162.768768 922.898315,163.372147 925.043884,166.466614 
	C928.388489,171.290375 935.380676,172.935562 940.184082,170.190262 
	C941.938171,169.187729 943.758911,166.876221 943.941406,165.005066 
	C944.084839,163.534851 942.081116,161.077591 940.459534,160.371170 
	C936.843506,158.795914 932.882141,157.995468 929.039490,156.961472 
	C917.775269,153.930435 912.567871,148.000061 914.015076,138.020065 
	C914.610291,133.915466 916.984497,129.453552 919.874695,126.414444 
	C927.980042,117.891136 947.816101,120.118454 954.353821,129.728806 
	C956.482239,132.857529 956.765625,134.880112 952.215271,136.088821 
	C948.336426,137.119171 945.496216,137.621140 941.816162,134.608765 
	C939.362122,132.599854 934.730896,132.753937 931.117859,132.915924 
	C929.780212,132.975876 927.766418,135.722626 927.549622,137.432724 
	C927.373962,138.818649 929.097473,141.224014 930.559814,141.878479 
	C933.706909,143.286880 937.369385,143.520935 940.563416,144.852890 
	C945.237061,146.801804 950.701416,148.307846 954.029724,151.744827 
	C962.507629,160.499588 958.954163,173.422852 946.733337,180.017059 
z"/>
<path fill="#0A1C33" opacity="1.000000" stroke="none" 
	d="
M901.255249,144.730484 
	C895.314697,144.999924 889.623596,145.017151 883.490479,144.880249 
	C882.839539,136.949753 882.839539,136.951172 890.817261,136.953903 
	C897.274536,136.956131 903.731812,136.954376 910.697144,136.954376 
	C910.790222,137.932617 910.965393,139.366928 911.057312,140.806580 
	C911.549927,148.524597 915.176208,154.065918 922.546570,156.704193 
	C927.192749,158.367340 932.072937,159.387207 936.687561,161.122711 
	C938.616455,161.848114 940.128723,163.681320 941.830383,165.010864 
	C939.953491,166.337662 938.241455,168.357147 936.166260,168.851059 
	C931.442444,169.975372 928.236633,166.985519 925.919556,163.344391 
	C923.802734,160.018036 921.604370,159.331924 918.059204,161.255722 
	C908.754028,166.305237 898.776489,168.241852 888.208618,167.001068 
	C885.851624,166.724319 882.996948,167.708237 882.938293,163.621490 
	C882.875671,159.257126 885.878967,160.022842 888.450439,159.984512 
	C891.782959,159.934830 895.116760,159.976318 898.449768,159.950912 
	C899.446289,159.943314 900.841003,160.233078 901.356506,159.705612 
	C902.484131,158.551910 904.069824,156.806458 903.859131,155.578949 
	C903.222229,151.868195 906.673401,147.182373 901.255249,144.730484 
z"/>
<path fill="#0B1D35" opacity="1.000000" stroke="none" 
	d="
M361.948914,119.778595 
	C360.936615,120.724670 359.844086,121.341896 358.440063,122.010178 
	C357.765594,121.416840 357.402649,120.772438 357.039703,120.128036 
	C358.649353,119.901939 360.259003,119.675850 361.948914,119.778595 
z"/>
<path fill="#0B1D35" opacity="1.000000" stroke="none" 
	d="
M351.601624,132.331085 
	C352.422913,131.457138 353.139984,130.878311 354.084045,130.116241 
	C354.092285,133.557724 354.092285,133.557724 351.601624,132.331085 
z"/>
<path fill="#0B1D35" opacity="1.000000" stroke="none" 
	d="
M354.042542,117.528900 
	C354.165009,117.837570 354.095001,118.142586 354.024994,118.447601 
	C353.966705,118.140160 353.908417,117.832710 354.042542,117.528900 
z"/>
<path fill="#E3E6E9" opacity="1.000000" stroke="none" 
	d="
M375.026184,136.400665 
	C371.744110,135.608459 368.676727,134.846069 365.637939,134.946808 
	C360.587860,135.114243 361.100769,131.827194 361.063416,128.615967 
	C361.024780,125.292206 360.862213,122.257805 365.753937,122.338547 
	C377.055237,122.525078 388.362823,122.499908 399.665436,122.361565 
	C404.738525,122.299484 404.040436,125.709641 404.081696,128.841507 
	C404.122131,131.913269 404.439301,134.772507 399.765564,134.930923 
	C389.674011,135.272995 389.677887,135.462830 389.671570,145.546860 
	C389.665436,155.355072 389.444122,165.170364 389.758118,174.968414 
	C389.909912,179.704910 388.112610,181.359497 383.668060,180.834305 
	C382.848083,180.737396 381.997253,180.732254 381.177765,180.829330 
	C376.904358,181.335419 375.324890,179.648697 375.387787,175.202423 
	C375.568848,162.410950 375.328522,149.613480 375.026184,136.400665 
z"/>
<path fill="#E7EAED" opacity="1.000000" stroke="none" 
	d="
M800.614380,167.434158 
	C804.877441,172.743637 812.083984,172.480927 815.418335,166.769608 
	C816.265930,165.317841 816.737244,163.153854 816.290710,161.638489 
	C816.053162,160.832230 813.476318,160.340378 811.963806,160.359924 
	C808.413452,160.405762 806.003357,160.120651 805.939087,155.398087 
	C805.873474,150.581635 807.351868,148.761368 812.202393,149.147156 
	C816.504028,149.489288 820.860657,149.352386 825.182068,149.169647 
	C828.902466,149.012360 830.173157,150.612457 830.087402,154.221207 
	C829.917358,161.376740 830.176575,168.543747 829.940063,175.695480 
	C829.885498,177.346420 828.548157,178.954956 827.801147,180.583008 
	C826.176758,179.777115 824.510803,179.042404 822.947632,178.131470 
	C822.289612,177.748001 821.848511,176.992355 821.800171,176.939819 
	C817.061768,178.730774 812.905579,181.246628 808.508057,181.782486 
	C796.442871,183.252686 788.247437,177.967377 784.106934,166.548462 
	C779.989685,155.193756 780.556519,143.881790 786.299805,133.195953 
	C791.044983,124.367348 798.820618,121.060158 808.783691,121.463768 
	C817.772400,121.827904 823.956543,125.945457 827.793396,133.719452 
	C828.948547,136.060074 831.632874,139.317581 827.462036,141.373718 
	C822.063049,144.035324 817.715149,142.839279 815.933167,138.813614 
	C814.193542,134.883850 811.441528,132.069931 806.884033,132.157013 
	C802.621643,132.238434 799.662354,134.678726 798.220947,138.590729 
	C794.625732,148.347305 793.880310,158.014618 800.171753,167.347946 
	C800.510376,167.428207 800.659912,167.367538 800.614380,167.434158 
z"/>
<path fill="#F1F4F5" opacity="1.000000" stroke="none" 
	d="
M770.108521,171.853363 
	C768.709412,173.163300 767.433960,174.337509 766.205566,175.855408 
	C766.252563,176.199112 766.236267,176.217957 765.863098,176.187164 
	C761.948975,177.999969 758.407959,179.843567 754.866943,181.687149 
	C752.241577,181.747910 749.616150,181.808685 746.432129,181.469147 
	C743.088196,180.227676 740.302856,179.386536 737.517517,178.545380 
	C737.081787,178.220474 736.645996,177.895569 736.067505,177.336136 
	C734.856995,175.731735 733.789307,174.361877 732.377319,172.985886 
	C732.033020,172.979752 731.773682,172.722092 731.808105,172.214783 
	C731.247070,171.127731 730.651733,170.547989 730.056335,169.968262 
	C729.870667,169.664795 729.684937,169.361343 729.573853,168.406342 
	C727.198608,159.190002 725.737183,150.570251 727.961670,141.692200 
	C728.556580,139.317810 728.936340,136.889481 729.414978,134.485931 
	C729.528076,134.147659 729.641174,133.809402 730.260986,133.217773 
	C731.086487,132.203537 731.405273,131.442688 731.724121,130.681854 
	C733.176636,129.124908 734.629089,127.567947 736.683533,125.878662 
	C737.859070,125.167046 738.432617,124.587753 739.006165,124.008453 
	C739.314758,123.824127 739.623413,123.639809 740.583679,123.578491 
	C743.164246,123.063881 745.093079,122.426285 747.021973,121.788696 
	C749.049561,121.737091 751.077087,121.685471 753.773071,121.974655 
	C757.538025,123.266441 760.634521,124.217422 763.731079,125.168396 
	C765.068176,126.267212 766.405212,127.366028 768.054932,128.565430 
	C769.013489,129.775024 769.659485,130.884018 770.387207,132.307678 
	C771.934265,138.017014 773.399536,143.411667 775.160522,148.991608 
	C775.504395,150.471756 775.552490,151.766617 775.544678,153.447083 
	C774.437378,157.779892 773.385986,161.727127 772.455627,166.081512 
	C772.383484,167.091782 772.190308,167.694870 771.516968,168.656616 
	C770.805725,169.799469 770.574707,170.583649 770.343689,171.367828 
	C770.343689,171.367828 770.232117,171.717621 770.108521,171.853363 
M752.822388,132.402084 
	C746.857056,131.983627 742.517212,134.031540 741.789795,139.908005 
	C740.807617,147.842270 741.539795,156.003952 741.789246,164.060242 
	C741.829895,165.374161 743.017700,166.774826 743.944153,167.917480 
	C747.621399,172.452866 753.647949,172.419006 757.299255,167.935730 
	C762.229004,161.882706 762.152405,141.259109 757.082825,135.361404 
	C756.134338,134.257889 754.741150,133.536621 752.822388,132.402084 
z"/>
<path fill="#E9ECEE" opacity="1.000000" stroke="none" 
	d="
M591.980286,157.994247 
	C589.401367,153.630692 587.016479,149.578949 584.631653,145.527206 
	C584.186096,145.650742 583.740540,145.774277 583.295044,145.897812 
	C583.139832,147.792114 582.861084,149.685745 582.850830,151.580841 
	C582.806702,159.743317 582.676758,167.910995 582.912964,176.067078 
	C583.040771,180.480530 580.626343,180.801300 577.229248,180.820312 
	C573.696960,180.840073 571.690674,180.206100 571.746216,175.886673 
	C571.953918,159.730469 571.901855,143.568954 571.741760,127.411461 
	C571.704407,123.647179 573.148621,122.256767 576.731628,122.498711 
	C578.722351,122.633118 580.732849,122.636711 582.726074,122.535347 
	C585.952393,122.371254 587.798767,123.805969 589.358215,126.682785 
	C593.640869,134.583374 598.284302,142.289246 602.835938,150.042267 
	C603.461670,151.108246 604.376892,152.004364 605.906189,153.912506 
	C606.262817,151.617310 606.596375,150.438843 606.604858,149.258026 
	C606.657837,141.928543 606.747620,134.596207 606.593018,127.269730 
	C606.522522,123.927055 607.522827,122.295380 611.130676,122.501701 
	C614.243347,122.679710 617.187378,122.319603 617.152527,126.962517 
	C617.027588,143.620331 617.061340,160.279770 617.128418,176.938202 
	C617.140015,179.815994 615.750000,180.612183 613.175476,180.812454 
	C607.992493,181.215622 604.008789,180.375351 601.557068,174.787415 
	C599.031006,169.029724 595.349976,163.778748 591.980286,157.994247 
z"/>
<path fill="#E7EBED" opacity="1.000000" stroke="none" 
	d="
M458.678711,164.045380 
	C454.137177,147.862946 458.168610,132.861832 468.855835,125.224365 
	C482.885193,115.198494 503.237732,123.191177 506.135742,139.763672 
	C506.774323,143.415482 506.035706,145.244690 502.004639,144.847839 
	C500.690277,144.718445 499.326508,144.764999 498.018677,144.957458 
	C494.337250,145.499191 492.085114,144.782684 491.613586,140.336182 
	C491.140015,135.870361 488.463531,132.468124 483.594727,132.163361 
	C478.612671,131.851501 475.386810,134.776093 473.947418,139.296555 
	C471.304535,147.596573 471.392334,156.044205 473.804626,164.379608 
	C475.035309,168.632111 478.202026,170.997391 482.652710,171.237595 
	C487.195526,171.482788 490.156494,169.093933 491.986725,165.082565 
	C493.754089,161.208817 501.683868,158.763138 505.120483,161.347824 
	C506.015472,162.020935 506.299683,164.381989 505.934662,165.712784 
	C503.502075,174.581558 497.543762,179.868958 488.583405,181.644608 
	C474.622833,184.411087 463.492249,177.908295 458.678711,164.045380 
z"/>
<path fill="#E5E7EA" opacity="1.000000" stroke="none" 
	d="
M685.407471,139.008194 
	C685.408447,134.518341 685.067078,130.481644 685.583740,126.557922 
	C685.781677,125.054428 687.899597,123.767693 689.237793,122.481140 
	C689.501587,122.227501 690.201782,122.432007 690.700500,122.417648 
	C699.660400,122.159729 699.654602,122.159477 699.646790,131.198669 
	C699.637451,142.009430 699.759766,152.822266 699.572205,163.629822 
	C699.504883,167.511581 700.868958,169.086197 704.765564,168.927582 
	C709.414734,168.738312 714.080994,168.995743 718.733459,168.851791 
	C723.123413,168.715958 722.930969,171.635483 722.813416,174.557693 
	C722.699402,177.390503 723.741333,180.876144 718.821228,180.826141 
	C709.175781,180.728088 699.527527,180.722015 689.882629,180.848618 
	C686.278687,180.895905 685.368103,179.175934 685.392700,175.930023 
	C685.484863,163.789474 685.415894,151.647720 685.407471,139.008194 
z"/>
<path fill="#ACB4BD" opacity="1.000000" stroke="none" 
	d="
M729.093872,134.642487 
	C728.936340,136.889481 728.556580,139.317810 727.961670,141.692200 
	C725.737183,150.570251 727.198608,159.190002 729.504333,168.147522 
	C728.032104,164.545166 726.156311,160.638367 725.495056,156.535812 
	C724.288757,149.051758 725.095154,141.653625 729.093872,134.642487 
z"/>
<path fill="#ACB4BD" opacity="1.000000" stroke="none" 
	d="
M763.645630,124.828156 
	C760.634521,124.217422 757.538025,123.266441 754.204102,122.034500 
	C757.164612,122.665001 760.362366,123.576462 763.645630,124.828156 
z"/>
<path fill="#ACB4BD" opacity="1.000000" stroke="none" 
	d="
M746.758057,121.616463 
	C745.093079,122.426285 743.164246,123.063881 740.851929,123.531815 
	C742.477051,122.722839 744.485596,122.083542 746.758057,121.616463 
z"/>
<path fill="#ACB4BD" opacity="1.000000" stroke="none" 
	d="
M730.003418,170.287262 
	C730.651733,170.547989 731.247070,171.127731 731.748413,172.041946 
	C731.086487,171.786362 730.518555,171.196320 730.003418,170.287262 
z"/>
<path fill="#ACB4BD" opacity="1.000000" stroke="none" 
	d="
M738.685181,123.976059 
	C738.432617,124.587753 737.859070,125.167046 736.948975,125.699356 
	C737.196411,125.082802 737.780273,124.513222 738.685181,123.976059 
z"/>
<path fill="#ACB4BD" opacity="1.000000" stroke="none" 
	d="
M731.414185,130.766113 
	C731.405273,131.442688 731.086487,132.203537 730.428467,133.007645 
	C730.427551,132.317383 730.765869,131.583878 731.414185,130.766113 
z"/>
<path fill="#F3F5F6" opacity="1.000000" stroke="none" 
	d="
M331.181824,161.905884 
	C333.002594,167.796646 334.663300,173.319244 336.633911,179.872345 
	C332.771912,179.872345 329.585388,180.373810 326.692902,179.668793 
	C325.159363,179.295029 323.605042,177.017303 322.975830,175.269440 
	C320.336395,167.937302 320.463104,167.892639 312.510803,167.837036 
	C311.512695,167.830048 310.512970,167.838837 309.516937,167.785629 
	C300.458160,167.301712 300.458344,167.298157 297.851990,175.763062 
	C296.531677,180.051163 294.760925,180.693085 287.798798,179.131805 
	C287.912354,177.765091 287.766815,176.247147 288.191040,174.909958 
	C293.115021,159.389542 298.238190,143.931274 303.030792,128.371002 
	C304.195160,124.590622 306.221741,123.297501 309.909424,123.668167 
	C311.721039,123.850266 313.578186,123.823631 315.394318,123.662025 
	C318.480530,123.387413 319.830231,124.939163 320.660889,127.719940 
	C324.035156,139.016235 327.555359,150.268951 331.181824,161.905884 
M306.589752,158.214264 
	C316.897583,158.559784 316.900085,158.559067 314.095825,148.686951 
	C313.779663,147.574036 313.465393,146.456177 313.061859,145.373550 
	C312.372284,143.523483 311.612701,141.699524 310.882538,139.864594 
	C310.411011,139.921692 309.939484,139.978806 309.467957,140.035904 
	C307.927826,145.179962 306.325836,150.307251 304.921326,155.488083 
	C304.733307,156.181671 305.543762,157.145950 306.589752,158.214264 
z"/>
<path fill="#E9ECEE" opacity="1.000000" stroke="none" 
	d="
M635.213196,176.767487 
	C626.325562,164.741058 624.059937,151.751572 628.960083,137.632370 
	C632.348816,127.868195 639.672729,122.108925 649.058289,121.609520 
	C661.592957,120.942551 668.151001,124.567383 673.127563,135.250183 
	C678.111633,145.949219 678.194275,156.915405 673.509094,167.641312 
	C666.855347,182.874039 649.161560,187.009857 635.744629,176.652252 
	C635.397888,176.609009 635.050171,176.947128 635.213196,176.767487 
M656.468445,133.876511 
	C650.910095,131.014908 645.851746,132.191498 643.692688,137.649872 
	C640.015015,146.947266 640.058044,156.615189 643.742371,165.857086 
	C646.452026,172.653885 654.927795,173.056030 658.954895,167.035614 
	C663.709961,159.927002 662.613037,140.893860 656.468445,133.876511 
z"/>
<path fill="#E5E8EB" opacity="1.000000" stroke="none" 
	d="
M855.648926,159.999023 
	C855.652649,165.495361 855.427795,170.506134 855.733948,175.484238 
	C855.997803,179.773621 854.180054,181.265839 850.189148,180.821487 
	C850.024597,180.803177 849.856262,180.818069 849.689697,180.819626 
	C841.844543,180.893143 841.846008,180.893173 841.848022,172.856979 
	C841.851868,157.867233 842.039429,142.873962 841.756042,127.889626 
	C841.656433,122.624130 844.453552,122.248421 848.336609,122.436348 
	C852.087280,122.617851 856.052734,121.685890 855.774780,128.026169 
	C855.315735,138.498901 855.650635,149.006409 855.648926,159.999023 
z"/>
<path fill="#ACB4BD" opacity="1.000000" stroke="none" 
	d="
M755.237793,181.819107 
	C758.407959,179.843567 761.948975,177.999969 765.853821,176.195282 
	C765.840698,176.907059 765.463745,177.579895 764.954834,178.521088 
	C761.751465,179.843292 758.680115,180.897171 755.237793,181.819107 
z"/>
<path fill="#ACB4BD" opacity="1.000000" stroke="none" 
	d="
M737.683350,178.854523 
	C740.302856,179.386536 743.088196,180.227676 746.000732,181.389557 
	C743.368286,180.861404 740.608704,180.012527 737.683350,178.854523 
z"/>
<path fill="#ACB4BD" opacity="1.000000" stroke="none" 
	d="
M770.649536,171.258438 
	C770.574707,170.583649 770.805725,169.799469 771.360168,168.936096 
	C771.440857,169.620972 771.198120,170.385010 770.649536,171.258438 
z"/>
<path fill="#1E2C40" opacity="1.000000" stroke="none" 
	d="
M753.187744,132.520538 
	C754.741150,133.536621 756.134338,134.257889 757.082825,135.361404 
	C762.152405,141.259109 762.229004,161.882706 757.299255,167.935730 
	C753.647949,172.419006 747.621399,172.452866 743.944153,167.917480 
	C743.017700,166.774826 741.829895,165.374161 741.789246,164.060242 
	C741.539795,156.003952 740.807617,147.842270 741.789795,139.908005 
	C742.517212,134.031540 746.857056,131.983627 753.187744,132.520538 
z"/>
<path fill="#414C59" opacity="1.000000" stroke="none" 
	d="
M306.240814,158.099579 
	C305.543762,157.145950 304.733307,156.181671 304.921326,155.488083 
	C306.325836,150.307251 307.927826,145.179962 309.467957,140.035904 
	C309.939484,139.978806 310.411011,139.921692 310.882538,139.864594 
	C311.612701,141.699524 312.372284,143.523483 313.061859,145.373550 
	C313.465393,146.456177 313.779663,147.574036 314.095825,148.686951 
	C316.900085,158.559067 316.897583,158.559784 306.240814,158.099579 
z"/>
<path fill="#1E2C40" opacity="1.000000" stroke="none" 
	d="
M656.769409,134.105988 
	C662.613037,140.893860 663.709961,159.927002 658.954895,167.035614 
	C654.927795,173.056030 646.452026,172.653885 643.742371,165.857086 
	C640.058044,156.615189 640.015015,146.947266 643.692688,137.649872 
	C645.851746,132.191498 650.910095,131.014908 656.769409,134.105988 
z"/>
</svg>